<?xml version="1.0" encoding="UTF-8" standalone="no" ?>
<!DOCTYPE svg PUBLIC "-//W3C//DTD SVG 1.1//EN" "http://www.w3.org/Graphics/SVG/1.1/DTD/svg11.dtd">
<svg xmlns="http://www.w3.org/2000/svg" xmlns:xlink="http://www.w3.org/1999/xlink" version="1.1" width="1280" height="350" viewBox="0 0 1280 350" xml:space="preserve">
<desc>Created with Fabric.js 3.6.3</desc>
<defs>
</defs>
<g transform="matrix(1.9692780337941629 0 0 1.9692780337941629 640.0153846153846 512.012312418764)" id="background-logo"  >
<rect style="stroke: none; stroke-width: 1; stroke-dasharray: none; stroke-linecap: butt; stroke-dashoffset: 0; stroke-linejoin: miter; stroke-miterlimit: 4; fill: rgb(155,100,56); fill-rule: nonzero; opacity: 1;"  paint-order="stroke"  x="-325" y="-260" rx="0" ry="0" width="650" height="520" />
</g>
<g transform="matrix(1.9692780337941629 0 0 1.9692780337941629 812.4206317651513 476.2697602603722)" id="text-logo-path"  >
<path style="stroke: none; stroke-width: 0; stroke-dasharray: none; stroke-linecap: butt; stroke-dashoffset: 0; stroke-linejoin: miter; stroke-miterlimit: 4; fill: #fffef3; fill-rule: nonzero; opacity: 1;"  paint-order="stroke"  transform=" translate(-189.29, 6.65)" d="M 5.77 0 L 1.68 0 L 1.68 -1.44 L 2.88 -1.44 L 2.88 -14.16 L 1.68 -14.16 L 1.68 -15.6 L 5.77 -15.6 L 5.77 -14.16 L 4.56 -14.16 L 4.56 -1.44 L 5.77 -1.44 L 5.77 0 Z M 11.51 0 L 9.83 0 L 9.83 -15.6 L 10.55 -15.6 L 11.14 -14.04 Q 12.29 -15.96 14.34 -15.96 L 14.34 -15.96 Q 17.87 -15.96 17.87 -12.6 L 17.87 -12.6 L 17.87 0 L 16.2 0 L 16.2 -12.6 Q 16.2 -13.51 15.8 -14.02 Q 15.4 -14.52 14.34 -14.52 Q 13.29 -14.52 12.4 -13.71 Q 11.51 -12.89 11.51 -12.12 L 11.51 -12.12 L 11.51 0 Z M 24.11 0 L 22.43 0 L 22.43 -15.6 L 23.14 -15.6 L 23.74 -14.04 Q 24.89 -15.96 26.94 -15.96 L 26.94 -15.96 Q 30.47 -15.96 30.47 -12.6 L 30.47 -12.6 L 30.47 0 L 28.79 0 L 28.79 -12.6 Q 28.79 -13.51 28.39 -14.02 Q 28 -14.52 26.94 -14.52 Q 25.89 -14.52 25 -13.71 Q 24.11 -12.89 24.11 -12.12 L 24.11 -12.12 L 24.11 0 Z M 34.66 -3 L 34.66 -3 L 34.66 -12.6 Q 34.66 -14.2 35.68 -15.08 Q 36.7 -15.96 38.73 -15.96 Q 40.76 -15.96 41.79 -15.08 Q 42.82 -14.2 42.82 -12.6 L 42.82 -12.6 L 42.82 -3 Q 42.82 -1.39 41.8 -0.52 Q 40.78 0.36 38.75 0.36 Q 36.73 0.36 35.7 -0.52 Q 34.66 -1.39 34.66 -3 Z M 36.34 -12.6 L 36.34 -3 Q 36.34 -1.08 38.74 -1.08 Q 41.14 -1.08 41.14 -3 L 41.14 -3 L 41.14 -12.6 Q 41.14 -14.52 38.74 -14.52 Q 36.34 -14.52 36.34 -12.6 L 36.34 -12.6 Z M 49.35 0 L 45.82 -15.6 L 47.5 -15.6 L 50.59 -1.85 L 53.72 -15.6 L 55.39 -15.6 L 51.87 0 L 49.35 0 Z M 58.27 -3 L 58.27 -3 L 58.27 -5.4 Q 58.27 -8.77 61.72 -8.77 L 61.72 -8.77 L 64.5 -8.77 L 64.5 -12.69 Q 64.5 -13.56 63.95 -14.04 Q 63.4 -14.52 62.32 -14.52 L 62.32 -14.52 Q 60.19 -14.52 60.19 -12.69 L 60.19 -12.69 L 60.19 -11.29 L 58.5 -11.29 L 58.5 -12.6 Q 58.5 -14.2 59.45 -15.08 Q 60.4 -15.96 62.32 -15.96 Q 64.24 -15.96 65.21 -15.08 Q 66.19 -14.2 66.19 -12.6 L 66.19 -12.6 L 66.19 0 L 65.46 0 L 64.84 -1.54 Q 64.34 -0.67 63.52 -0.15 Q 62.71 0.36 61.72 0.36 L 61.72 0.36 Q 58.27 0.36 58.27 -3 Z M 59.94 -5.4 L 59.94 -3 Q 59.94 -2.09 60.33 -1.58 Q 60.71 -1.08 61.72 -1.08 Q 62.73 -1.08 63.59 -1.86 Q 64.45 -2.64 64.5 -3.41 L 64.5 -3.41 L 64.5 -7.32 L 61.72 -7.32 Q 60.71 -7.32 60.33 -6.82 Q 59.94 -6.32 59.94 -5.4 L 59.94 -5.4 Z M 70.38 -2.77 L 70.38 -2.77 L 70.38 -15.6 L 75.67 -15.6 L 75.67 -14.16 L 72.06 -14.16 L 72.06 -2.66 Q 72.06 -1.99 72.41 -1.54 Q 72.76 -1.08 73.39 -1.08 Q 74.03 -1.08 74.37 -1.52 Q 74.71 -1.97 74.71 -2.66 L 74.71 -2.66 L 74.71 -5.52 L 76.38 -5.52 L 76.38 -2.77 Q 76.38 -1.25 75.58 -0.45 Q 74.78 0.36 73.41 0.36 Q 72.04 0.36 71.21 -0.44 Q 70.38 -1.24 70.38 -2.77 Z M 81.42 0 L 79.75 0 L 79.75 -15.6 L 81.42 -15.6 L 81.42 0 Z M 88.3 0 L 84.77 -15.6 L 86.45 -15.6 L 89.54 -1.85 L 92.67 -15.6 L 94.35 -15.6 L 90.82 0 L 88.3 0 Z M 97.34 -3 L 97.34 -3 L 97.34 -12.6 Q 97.34 -14.2 98.32 -15.08 Q 99.3 -15.96 101.27 -15.96 Q 103.24 -15.96 104.25 -15.08 Q 105.26 -14.2 105.26 -12.6 L 105.26 -12.6 L 105.26 -7.32 L 99.01 -7.32 L 99.01 -3 Q 99.01 -1.08 101.3 -1.08 Q 103.58 -1.08 103.58 -3 L 103.58 -3 L 103.58 -4.32 L 105.26 -4.32 L 105.26 -3 Q 105.26 -1.39 104.27 -0.52 Q 103.29 0.36 101.32 0.36 Q 99.35 0.36 98.34 -0.52 Q 97.34 -1.39 97.34 -3 Z M 99.01 -12.6 L 99.01 -8.77 L 103.58 -8.77 L 103.58 -12.6 Q 103.58 -14.52 101.3 -14.52 Q 99.01 -14.52 99.01 -12.6 L 99.01 -12.6 Z M 114.86 -3 L 114.86 -3 L 114.86 -12.6 Q 114.86 -14.2 115.84 -15.08 Q 116.82 -15.96 118.79 -15.96 Q 120.76 -15.96 121.77 -15.08 Q 122.78 -14.2 122.78 -12.6 L 122.78 -12.6 L 122.78 -10.32 L 121.1 -10.32 L 121.1 -12.6 Q 121.1 -14.52 118.82 -14.52 Q 116.53 -14.52 116.53 -12.6 L 116.53 -12.6 L 116.53 -3 Q 116.53 -1.08 118.82 -1.08 Q 121.1 -1.08 121.1 -3 L 121.1 -3 L 121.1 -4.32 L 122.78 -4.32 L 122.78 -3 Q 122.78 -1.39 121.79 -0.52 Q 120.81 0.36 118.84 0.36 Q 116.87 0.36 115.86 -0.52 Q 114.86 -1.39 114.86 -3 Z M 126.61 -3 L 126.61 -3 L 126.61 -12.6 Q 126.61 -14.2 127.63 -15.08 Q 128.65 -15.96 130.68 -15.96 Q 132.7 -15.96 133.73 -15.08 Q 134.77 -14.2 134.77 -12.6 L 134.77 -12.6 L 134.77 -3 Q 134.77 -1.39 133.75 -0.52 Q 132.73 0.36 130.7 0.36 Q 128.67 0.36 127.64 -0.52 Q 126.61 -1.39 126.61 -3 Z M 128.29 -12.6 L 128.29 -3 Q 128.29 -1.08 130.69 -1.08 Q 133.09 -1.08 133.09 -3 L 133.09 -3 L 133.09 -12.6 Q 133.09 -14.52 130.69 -14.52 Q 128.29 -14.52 128.29 -12.6 L 128.29 -12.6 Z M 140.88 0 L 139.21 0 L 139.21 -15.6 L 139.92 -15.6 L 140.52 -14.04 Q 141.67 -15.96 143.72 -15.96 L 143.72 -15.96 Q 147.25 -15.96 147.25 -12.6 L 147.25 -12.6 L 147.25 0 L 145.57 0 L 145.57 -12.6 Q 145.57 -13.51 145.17 -14.02 Q 144.77 -14.52 143.72 -14.52 Q 142.66 -14.52 141.77 -13.71 Q 140.88 -12.89 140.88 -12.12 L 140.88 -12.12 L 140.88 0 Z M 151.32 -3 L 151.32 -3 L 151.32 -5.04 L 153 -5.04 L 153 -2.91 Q 153 -2.04 153.6 -1.56 Q 154.21 -1.08 155.38 -1.08 Q 156.55 -1.08 157.15 -1.56 Q 157.76 -2.04 157.76 -2.87 Q 157.76 -3.69 157.58 -4.18 Q 157.39 -4.68 156.84 -5.23 L 156.84 -5.23 L 152.61 -9.36 Q 151.88 -10.1 151.6 -10.81 Q 151.32 -11.52 151.32 -12.6 L 151.32 -12.6 Q 151.32 -14.2 152.32 -15.08 Q 153.32 -15.96 155.33 -15.96 L 155.33 -15.96 Q 159.2 -15.96 159.2 -12.6 L 159.2 -12.6 L 159.2 -10.56 L 157.51 -10.56 L 157.51 -12.69 Q 157.51 -13.56 156.95 -14.04 Q 156.39 -14.52 155.26 -14.52 Q 154.13 -14.52 153.56 -14.04 Q 153 -13.56 153 -12.72 Q 153 -11.88 153.17 -11.4 Q 153.34 -10.92 153.91 -10.39 L 153.91 -10.39 L 158.21 -6.27 Q 158.91 -5.5 159.17 -4.79 Q 159.43 -4.08 159.43 -3 L 159.43 -3 Q 159.43 0.36 155.38 0.36 Q 151.32 0.36 151.32 -3 Z M 163.38 -2.77 L 163.38 -2.77 L 163.38 -15.6 L 168.67 -15.6 L 168.67 -14.16 L 165.06 -14.16 L 165.06 -2.66 Q 165.06 -1.99 165.41 -1.54 Q 165.76 -1.08 166.39 -1.08 Q 167.03 -1.08 167.37 -1.52 Q 167.71 -1.97 167.71 -2.66 L 167.71 -2.66 L 167.71 -5.52 L 169.38 -5.52 L 169.38 -2.77 Q 169.38 -1.25 168.58 -0.45 Q 167.78 0.36 166.41 0.36 Q 165.04 0.36 164.21 -0.44 Q 163.38 -1.24 163.38 -2.77 Z M 174.42 0 L 172.75 0 L 172.75 -15.6 L 173.46 -15.6 L 174.16 -13.83 Q 174.94 -15.96 176.61 -15.96 L 176.61 -15.96 Q 179.47 -15.96 179.46 -12.84 L 179.46 -12.84 L 179.46 -11.29 L 177.86 -11.29 L 177.86 -12.94 Q 177.86 -14.52 176.53 -14.52 L 176.53 -14.52 Q 175.73 -14.52 175.08 -13.61 Q 174.42 -12.69 174.42 -10.97 L 174.42 -10.97 L 174.42 0 Z M 182.1 -3 L 182.1 -3 L 182.1 -15.6 L 183.79 -15.6 L 183.79 -3 Q 183.79 -2.09 184.18 -1.58 Q 184.57 -1.08 185.63 -1.08 Q 186.68 -1.08 187.57 -1.89 Q 188.46 -2.71 188.46 -3.48 L 188.46 -3.48 L 188.46 -15.6 L 190.14 -15.6 L 190.14 0 L 189.42 0 L 188.8 -1.54 Q 188.27 -0.67 187.44 -0.15 Q 186.61 0.36 185.63 0.36 L 185.63 0.36 Q 182.1 0.36 182.1 -3 Z M 194.58 -3 L 194.58 -3 L 194.58 -12.6 Q 194.58 -14.2 195.56 -15.08 Q 196.55 -15.96 198.52 -15.96 Q 200.48 -15.96 201.49 -15.08 Q 202.5 -14.2 202.5 -12.6 L 202.5 -12.6 L 202.5 -10.32 L 200.82 -10.32 L 200.82 -12.6 Q 200.82 -14.52 198.54 -14.52 Q 196.25 -14.52 196.25 -12.6 L 196.25 -12.6 L 196.25 -3 Q 196.25 -1.08 198.54 -1.08 Q 200.82 -1.08 200.82 -3 L 200.82 -3 L 200.82 -4.32 L 202.5 -4.32 L 202.5 -3 Q 202.5 -1.39 201.52 -0.52 Q 200.53 0.36 198.56 0.36 Q 196.59 0.36 195.59 -0.52 Q 194.58 -1.39 194.58 -3 Z M 206.33 -2.77 L 206.33 -2.77 L 206.33 -15.6 L 211.62 -15.6 L 211.62 -14.16 L 208.01 -14.16 L 208.01 -2.66 Q 208.01 -1.99 208.36 -1.54 Q 208.71 -1.08 209.34 -1.08 Q 209.98 -1.08 210.32 -1.52 Q 210.66 -1.97 210.66 -2.66 L 210.66 -2.66 L 210.66 -5.52 L 212.33 -5.52 L 212.33 -2.77 Q 212.33 -1.25 211.53 -0.45 Q 210.73 0.36 209.36 0.36 Q 207.98 0.36 207.16 -0.44 Q 206.33 -1.24 206.33 -2.77 Z M 217.37 0 L 215.7 0 L 215.7 -15.6 L 217.37 -15.6 L 217.37 0 Z M 221.8 -3 L 221.8 -3 L 221.8 -12.6 Q 221.8 -14.2 222.82 -15.08 Q 223.84 -15.96 225.87 -15.96 Q 227.89 -15.96 228.93 -15.08 Q 229.96 -14.2 229.96 -12.6 L 229.96 -12.6 L 229.96 -3 Q 229.96 -1.39 228.94 -0.52 Q 227.92 0.36 225.89 0.36 Q 223.86 0.36 222.83 -0.52 Q 221.8 -1.39 221.8 -3 Z M 223.48 -12.6 L 223.48 -3 Q 223.48 -1.08 225.88 -1.08 Q 228.28 -1.08 228.28 -3 L 228.28 -3 L 228.28 -12.6 Q 228.28 -14.52 225.88 -14.52 Q 223.48 -14.52 223.48 -12.6 L 223.48 -12.6 Z M 236.07 0 L 234.4 0 L 234.4 -15.6 L 235.11 -15.6 L 235.71 -14.04 Q 236.86 -15.96 238.91 -15.96 L 238.91 -15.96 Q 242.44 -15.96 242.44 -12.6 L 242.44 -12.6 L 242.44 0 L 240.76 0 L 240.76 -12.6 Q 240.76 -13.51 240.36 -14.02 Q 239.96 -14.52 238.91 -14.52 Q 237.86 -14.52 236.96 -13.71 Q 236.07 -12.89 236.07 -12.12 L 236.07 -12.12 L 236.07 0 Z M 252.04 -3 L 252.04 -3 L 252.04 -5.04 L 253.71 -5.04 L 253.71 -2.91 Q 253.71 -2.04 254.31 -1.56 Q 254.92 -1.08 256.09 -1.08 Q 257.26 -1.08 257.87 -1.56 Q 258.47 -2.04 258.47 -2.87 Q 258.47 -3.69 258.29 -4.18 Q 258.11 -4.68 257.55 -5.23 L 257.55 -5.23 L 253.32 -9.36 Q 252.59 -10.1 252.31 -10.81 Q 252.04 -11.52 252.04 -12.6 L 252.04 -12.6 Q 252.04 -14.2 253.03 -15.08 Q 254.03 -15.96 256.04 -15.96 L 256.04 -15.96 Q 259.91 -15.96 259.91 -12.6 L 259.91 -12.6 L 259.91 -10.56 L 258.22 -10.56 L 258.22 -12.69 Q 258.22 -13.56 257.66 -14.04 Q 257.1 -14.52 255.97 -14.52 Q 254.84 -14.52 254.27 -14.04 Q 253.71 -13.56 253.71 -12.72 Q 253.71 -11.88 253.88 -11.4 Q 254.05 -10.92 254.63 -10.39 L 254.63 -10.39 L 258.93 -6.27 Q 259.62 -5.5 259.88 -4.79 Q 260.14 -4.08 260.14 -3 L 260.14 -3 Q 260.14 0.36 256.09 0.36 Q 252.04 0.36 252.04 -3 Z M 264.09 -3 L 264.09 -3 L 264.09 -12.6 Q 264.09 -14.2 265.08 -15.08 Q 266.06 -15.96 268.03 -15.96 Q 270 -15.96 271.01 -15.08 Q 272.02 -14.2 272.02 -12.6 L 272.02 -12.6 L 272.02 -7.32 L 265.77 -7.32 L 265.77 -3 Q 265.77 -1.08 268.05 -1.08 Q 270.34 -1.08 270.34 -3 L 270.34 -3 L 270.34 -4.32 L 272.02 -4.32 L 272.02 -3 Q 272.02 -1.39 271.03 -0.52 Q 270.05 0.36 268.08 0.36 Q 266.11 0.36 265.1 -0.52 Q 264.09 -1.39 264.09 -3 Z M 265.77 -12.6 L 265.77 -8.77 L 270.34 -8.77 L 270.34 -12.6 Q 270.34 -14.52 268.05 -14.52 Q 265.77 -14.52 265.77 -12.6 L 265.77 -12.6 Z M 278.13 0 L 276.46 0 L 276.46 -15.6 L 277.17 -15.6 L 277.88 -13.83 Q 278.65 -15.96 280.32 -15.96 L 280.32 -15.96 Q 283.18 -15.96 283.17 -12.84 L 283.17 -12.84 L 283.17 -11.29 L 281.57 -11.29 L 281.57 -12.94 Q 281.57 -14.52 280.24 -14.52 L 280.24 -14.52 Q 279.45 -14.52 278.79 -13.61 Q 278.13 -12.69 278.13 -10.97 L 278.13 -10.97 L 278.13 0 Z M 288.14 0 L 284.61 -15.6 L 286.29 -15.6 L 289.38 -1.85 L 292.51 -15.6 L 294.19 -15.6 L 290.66 0 L 288.14 0 Z M 299.21 0 L 297.54 0 L 297.54 -15.6 L 299.21 -15.6 L 299.21 0 Z M 303.64 -3 L 303.64 -3 L 303.64 -12.6 Q 303.64 -14.2 304.63 -15.08 Q 305.61 -15.96 307.58 -15.96 Q 309.55 -15.96 310.56 -15.08 Q 311.57 -14.2 311.57 -12.6 L 311.57 -12.6 L 311.57 -10.32 L 309.89 -10.32 L 309.89 -12.6 Q 309.89 -14.52 307.61 -14.52 Q 305.32 -14.52 305.32 -12.6 L 305.32 -12.6 L 305.32 -3 Q 305.32 -1.08 307.61 -1.08 Q 309.89 -1.08 309.89 -3 L 309.89 -3 L 309.89 -4.32 L 311.57 -4.32 L 311.57 -3 Q 311.57 -1.39 310.58 -0.52 Q 309.6 0.36 307.63 0.36 Q 305.66 0.36 304.65 -0.52 Q 303.64 -1.39 303.64 -3 Z M 315.4 -3 L 315.4 -3 L 315.4 -12.6 Q 315.4 -14.2 316.38 -15.08 Q 317.37 -15.96 319.34 -15.96 Q 321.3 -15.96 322.31 -15.08 Q 323.32 -14.2 323.32 -12.6 L 323.32 -12.6 L 323.32 -7.32 L 317.07 -7.32 L 317.07 -3 Q 317.07 -1.08 319.36 -1.08 Q 321.64 -1.08 321.64 -3 L 321.64 -3 L 321.64 -4.32 L 323.32 -4.32 L 323.32 -3 Q 323.32 -1.39 322.34 -0.52 Q 321.35 0.36 319.38 0.36 Q 317.41 0.36 316.41 -0.52 Q 315.4 -1.39 315.4 -3 Z M 317.07 -12.6 L 317.07 -8.77 L 321.64 -8.77 L 321.64 -12.6 Q 321.64 -14.52 319.36 -14.52 Q 317.07 -14.52 317.07 -12.6 L 317.07 -12.6 Z M 327.28 -3 L 327.28 -3 L 327.28 -5.04 L 328.96 -5.04 L 328.96 -2.91 Q 328.96 -2.04 329.56 -1.56 Q 330.16 -1.08 331.34 -1.08 Q 332.51 -1.08 333.11 -1.56 Q 333.71 -2.04 333.71 -2.87 Q 333.71 -3.69 333.53 -4.18 Q 333.35 -4.68 332.8 -5.23 L 332.8 -5.23 L 328.57 -9.36 Q 327.83 -10.1 327.56 -10.81 Q 327.28 -11.52 327.28 -12.6 L 327.28 -12.6 Q 327.28 -14.2 328.28 -15.08 Q 329.27 -15.96 331.29 -15.96 L 331.29 -15.96 Q 335.16 -15.96 335.16 -12.6 L 335.16 -12.6 L 335.16 -10.56 L 333.47 -10.56 L 333.47 -12.69 Q 333.47 -13.56 332.91 -14.04 Q 332.34 -14.52 331.21 -14.52 Q 330.08 -14.52 329.52 -14.04 Q 328.96 -13.56 328.96 -12.72 Q 328.96 -11.88 329.13 -11.4 Q 329.3 -10.92 329.87 -10.39 L 329.87 -10.39 L 334.17 -6.27 Q 334.86 -5.5 335.13 -4.79 Q 335.39 -4.08 335.39 -3 L 335.39 -3 Q 335.39 0.36 331.34 0.36 Q 327.28 0.36 327.28 -3 Z M 339.91 0 L 339.34 -0.21 L 339.34 -2.64 L 341.5 -2.64 L 341.5 -0.36 L 340.32 2.66 L 339.56 2.52 L 339.91 0 Z M 357.53 0 L 351.46 0 L 351.46 -15.6 L 353.13 -15.6 L 353.13 -1.44 L 357.53 -1.44 L 357.53 0 Z M 366.47 0 L 360.4 0 L 360.4 -15.6 L 362.07 -15.6 L 362.07 -1.44 L 366.47 -1.44 L 366.47 0 Z M 368.98 -3 L 368.98 -3 L 368.98 -12.6 Q 368.98 -14.2 369.96 -15.08 Q 370.95 -15.96 372.91 -15.96 Q 374.88 -15.96 375.89 -15.08 Q 376.9 -14.2 376.9 -12.6 L 376.9 -12.6 L 376.9 -10.32 L 375.22 -10.32 L 375.22 -12.6 Q 375.22 -14.52 372.94 -14.52 Q 370.65 -14.52 370.65 -12.6 L 370.65 -12.6 L 370.65 -3 Q 370.65 -1.08 372.94 -1.08 Q 375.22 -1.08 375.22 -3 L 375.22 -3 L 375.22 -4.32 L 376.9 -4.32 L 376.9 -3 Q 376.9 -1.39 375.91 -0.52 Q 374.93 0.36 372.96 0.36 Q 370.99 0.36 369.98 -0.52 Q 368.98 -1.39 368.98 -3 Z" stroke-linecap="round" />
</g>
<g transform="matrix(1.9692780337941629 0 0 1.9692780337941629 815.557876292801 573.0192533439647)" id="tagline-d42b78e6-b262-41b6-887f-c7d408782666-logo-path"  >
<path style="stroke: none; stroke-width: 0; stroke-dasharray: none; stroke-linecap: butt; stroke-dashoffset: 0; stroke-linejoin: miter; stroke-miterlimit: 4; fill: #fffef3; fill-rule: nonzero; opacity: 1;"  paint-order="stroke"  transform=" translate(-160.44, 7.232500000000002)" d="M 17.92 -15.53 Q 17.92 -14.45 17.62 -12.82 Q 17.33 -11.19 16.88 -9.98 Q 16.43 -8.77 16.03 -8.77 L 16.03 -8.77 Q 16 -8.77 15.92 -8.74 Q 15.84 -8.71 15.84 -8.59 L 15.84 -8.59 Q 15.9 -8.34 15.7 -7.56 Q 15.5 -6.79 15.07 -5.95 L 15.07 -5.95 Q 13.73 -2.39 11.97 -0.31 L 11.97 -0.31 Q 12.28 0.37 12.46 0.62 L 12.46 0.62 Q 12.52 0.84 12.83 1.33 L 12.83 1.33 Q 13.21 1.89 13.3 2.2 L 13.3 2.2 Q 14.01 3.29 14.01 3.6 L 14.01 3.6 Q 14.01 3.78 13.81 3.86 Q 13.61 3.94 13.18 3.91 L 13.18 3.91 Q 12.71 3.94 12.2 3.56 Q 11.69 3.19 11.56 2.76 L 11.56 2.76 Q 11.38 2.57 11.35 2.4 Q 11.31 2.23 11.28 2.17 L 11.28 2.17 Q 11.16 2.11 10.94 1.83 Q 10.73 1.55 10.63 1.24 L 10.63 1.24 L 10.54 1.02 Q 8.96 2.23 7.32 2.23 L 7.32 2.23 Q 6.97 2.23 6.79 2.2 L 6.79 2.2 Q 6.04 2.08 5.21 1.5 Q 4.37 0.93 4.06 0.28 L 4.06 0.28 Q 3.19 -1.49 3.19 -3.56 L 3.19 -3.56 Q 3.19 -5.18 3.66 -7.41 L 3.66 -7.41 Q 3.97 -8.59 4.68 -10.68 Q 5.39 -12.77 5.52 -12.77 L 5.52 -12.77 Q 5.61 -12.87 5.61 -13.3 L 5.61 -13.3 Q 5.61 -13.64 6.57 -15.16 Q 7.53 -16.68 8.28 -17.33 L 8.28 -17.33 Q 9.3 -18.69 11.25 -19.68 L 11.25 -19.68 Q 11.56 -19.87 12.23 -20.12 Q 12.9 -20.37 13.36 -20.4 L 13.36 -20.4 Q 14.88 -20.49 15.65 -20.04 Q 16.43 -19.59 17.05 -18.35 L 17.05 -18.35 Q 17.48 -17.86 17.62 -17.41 Q 17.76 -16.96 17.86 -16.15 L 17.86 -16.15 Q 17.86 -15.96 17.92 -15.53 L 17.92 -15.53 Z M 15.87 -15.56 Q 15.93 -15.93 15.93 -16.52 L 15.93 -16.52 Q 15.93 -17.36 15.65 -17.82 Q 15.38 -18.29 14.76 -18.57 L 14.76 -18.57 Q 14.29 -18.72 13.89 -18.72 L 13.89 -18.72 Q 12.4 -18.72 10.83 -17.25 Q 9.27 -15.78 8.18 -13.08 L 8.18 -13.08 Q 6.6 -9.73 5.86 -7.32 Q 5.12 -4.9 5.12 -3.04 L 5.12 -3.04 Q 5.12 -2.14 5.3 -1.3 L 5.3 -1.3 Q 5.36 -0.46 5.7 0 Q 6.04 0.46 6.6 0.46 L 6.6 0.46 Q 6.88 0.46 7.04 0.4 L 7.04 0.4 Q 8.31 0.22 9.52 -0.99 L 9.52 -0.99 L 8.96 -2.02 Q 8.03 -3.84 7.87 -4.03 L 7.87 -4.03 Q 7.78 -4.12 7.78 -4.28 L 7.78 -4.28 Q 7.78 -4.5 7.94 -4.65 L 7.94 -4.65 Q 8.06 -4.93 8.17 -5.02 Q 8.28 -5.12 8.46 -5.12 L 8.46 -5.12 Q 8.53 -5.12 9.08 -4.99 L 9.08 -4.99 Q 9.8 -4.99 10.38 -3.5 L 10.38 -3.5 Q 10.48 -3.16 10.79 -2.48 L 10.79 -2.48 Q 12.65 -5.12 14.17 -9.33 L 14.17 -9.33 L 14.54 -10.29 Q 15.13 -11.69 15.48 -12.93 Q 15.84 -14.17 15.87 -15.56 L 15.87 -15.56 Z M 25.7 -0.06 Q 24.95 -0.78 24.58 -2.17 L 24.58 -2.17 Q 24.52 -2.36 24.52 -2.82 Q 24.52 -3.29 24.52 -3.47 L 24.52 -3.47 Q 24.34 -3.01 23.84 -2.63 L 23.84 -2.63 Q 23.13 -1.92 22.41 -1.58 L 22.41 -1.58 Q 21.33 -0.87 20.65 -0.87 L 20.65 -0.87 Q 20.03 -0.87 19.47 -1.55 L 19.47 -1.55 Q 19.06 -1.89 18.86 -2.23 Q 18.66 -2.57 18.66 -3.07 L 18.66 -3.07 Q 18.66 -3.41 18.75 -3.81 L 18.75 -3.81 Q 18.82 -4.96 19.08 -6.01 Q 19.34 -7.07 20.09 -8.71 L 20.09 -8.71 Q 21.08 -10.66 21.51 -11.31 L 21.51 -11.31 Q 21.67 -11.38 21.92 -11.38 L 21.92 -11.38 Q 22.23 -11.38 22.43 -11.19 Q 22.63 -11.01 22.66 -10.7 L 22.66 -10.7 Q 22.75 -10.57 22.75 -10.35 L 22.75 -10.35 Q 22.75 -9.58 21.82 -7.81 L 21.82 -7.81 Q 20.61 -4.9 20.61 -3.78 L 20.61 -3.78 Q 20.61 -3.13 20.99 -3.01 L 20.99 -3.01 Q 21.14 -2.91 21.33 -2.91 L 21.33 -2.91 Q 22.1 -2.91 23.19 -3.97 Q 24.27 -5.02 25.27 -7.35 L 25.27 -7.35 Q 25.7 -8.4 25.79 -9.52 L 25.79 -9.52 Q 25.76 -9.61 25.76 -9.8 L 25.76 -9.8 Q 25.76 -10.35 26.32 -10.7 L 26.32 -10.7 Q 26.44 -10.88 26.66 -10.99 Q 26.88 -11.1 26.94 -10.97 L 26.94 -10.97 L 27.43 -11.01 Q 27.53 -11.04 27.62 -10.83 Q 27.71 -10.63 27.81 -10.57 L 27.81 -10.57 Q 28.02 -10.38 28.02 -9.89 L 28.02 -9.89 Q 28.02 -8.87 27.13 -6.76 L 27.13 -6.76 Q 26.54 -5.52 26.33 -4.85 Q 26.13 -4.18 26.1 -3.56 L 26.1 -3.56 Q 26.1 -2.39 27 -1.61 L 27 -1.61 Q 27.31 -1.4 27.37 -1.15 Q 27.43 -0.9 27.4 -0.46 L 27.4 -0.46 Q 27.34 -0.19 27.05 -0.02 Q 26.75 0.15 26.41 0.15 L 26.41 0.15 Q 26.01 0.15 25.7 -0.06 L 25.7 -0.06 Z M 29.98 -1.12 Q 29.88 -1.3 29.68 -1.5 Q 29.48 -1.71 29.48 -1.77 L 29.48 -1.77 Q 29.48 -2.11 29.33 -2.29 L 29.33 -2.29 Q 29.26 -2.36 29.26 -2.57 L 29.26 -2.57 Q 29.26 -3.07 29.74 -4.26 Q 30.23 -5.46 31 -6.85 L 31 -6.85 Q 31.19 -7.04 31.48 -7.5 Q 31.77 -7.97 31.87 -8.03 L 31.87 -8.03 Q 31.87 -8.15 31.96 -8.26 Q 32.05 -8.37 32.18 -8.37 L 32.18 -8.37 L 32.18 -8.56 Q 32.18 -8.83 33.2 -9.9 Q 34.22 -10.97 34.88 -11.38 L 34.88 -11.38 Q 35.65 -11.9 36.46 -11.9 L 36.46 -11.9 Q 37.01 -11.9 37.42 -11.59 L 37.42 -11.59 Q 37.57 -11.41 38.84 -10.26 L 38.84 -10.26 L 39.99 -9.24 L 39.43 -7.69 Q 39.15 -6.85 39.15 -6.17 L 39.15 -6.17 Q 39.15 -4.99 39.84 -3.91 L 39.84 -3.91 Q 39.99 -3.56 40.45 -3.25 Q 40.92 -2.94 41.38 -2.88 L 41.38 -2.88 Q 42.07 -2.76 42.07 -2.2 L 42.07 -2.2 Q 42.07 -1.58 41.51 -1.46 L 41.51 -1.46 Q 41.38 -1.43 41.14 -1.43 L 41.14 -1.43 Q 39.31 -1.43 37.98 -4 L 37.98 -4 Q 37.85 -4.18 37.65 -4.68 Q 37.45 -5.18 37.42 -5.36 L 37.42 -5.36 Q 37.23 -5.12 36.95 -4.77 Q 36.67 -4.43 36.42 -4.18 L 36.42 -4.18 Q 33.05 -0.81 31.09 -0.81 L 31.09 -0.81 Q 30.47 -0.81 29.98 -1.12 L 29.98 -1.12 Z M 31.09 -2.85 Q 31.09 -2.7 31.42 -2.76 Q 31.74 -2.82 32.22 -3.07 Q 32.7 -3.32 33.2 -3.72 L 33.2 -3.72 Q 35.87 -6.01 37.05 -7.72 L 37.05 -7.72 L 37.73 -8.83 Q 37.42 -9.49 37.08 -9.78 Q 36.73 -10.07 36.46 -10.07 L 36.46 -10.07 Q 35.8 -10.07 34.41 -8.45 Q 33.02 -6.82 31.87 -4.62 L 31.87 -4.62 Q 31.59 -4.09 31.37 -3.55 Q 31.16 -3.01 31.09 -2.85 L 31.09 -2.85 Z M 44.24 0 Q 44.14 0.03 43.93 0.03 L 43.93 0.03 Q 43.43 0.03 43.15 -0.46 Q 42.87 -0.96 42.87 -1.83 L 42.87 -1.83 Q 42.87 -2.54 43.06 -3.47 L 43.06 -3.47 Q 43.4 -4.37 43.4 -4.77 L 43.4 -4.77 Q 43.49 -5.36 44.04 -6.9 Q 44.58 -8.43 44.73 -8.74 L 44.73 -8.74 Q 44.86 -8.74 44.95 -8.94 Q 45.04 -9.14 45.04 -9.39 L 45.04 -9.39 Q 45.04 -9.67 45.15 -9.97 Q 45.26 -10.26 45.38 -10.38 L 45.38 -10.38 Q 45.38 -10.48 45.46 -10.73 Q 45.54 -10.97 45.54 -11.07 L 45.54 -11.07 Q 45.54 -11.13 45.62 -11.3 Q 45.69 -11.47 45.69 -11.56 L 45.69 -11.56 Q 46.19 -12.52 47.43 -15.89 Q 48.67 -19.25 48.67 -19.62 L 48.67 -19.62 Q 48.67 -20.12 49.17 -20.12 L 49.17 -20.12 Q 49.32 -20.27 49.66 -20.27 L 49.66 -20.27 L 50.16 -19.78 Q 50.38 -19.56 50.44 -19.33 Q 50.5 -19.1 50.5 -18.63 L 50.5 -18.63 Q 50.5 -18.17 50.38 -17.82 Q 50.25 -17.48 49.76 -16.43 L 49.76 -16.43 Q 49.66 -16.21 49.51 -15.92 Q 49.35 -15.62 49.17 -15.19 L 49.17 -15.19 Q 49.1 -15.04 48.67 -14.07 L 48.67 -14.07 Q 48.36 -13.45 48.36 -13.36 L 48.36 -13.36 Q 48.36 -13.27 48.24 -12.97 Q 48.11 -12.68 48.02 -12.37 L 48.02 -12.37 Q 47.77 -11.87 47.23 -10.62 Q 46.69 -9.36 46.69 -9.24 L 46.69 -9.24 Q 46.69 -8.9 46.53 -8.74 L 46.53 -8.74 Q 46.44 -8.74 46.41 -8.6 Q 46.38 -8.46 46.38 -8.4 L 46.38 -8.4 Q 46.38 -8.09 45.88 -6.76 L 45.88 -6.76 L 45.6 -5.86 Q 45.01 -3.84 44.78 -2.91 Q 44.55 -1.98 44.55 -1.33 L 44.55 -1.33 Q 44.55 -0.56 44.5 -0.34 Q 44.45 -0.12 44.24 0 L 44.24 0 Z M 51.89 -13.58 Q 51.68 -13.79 51.52 -14.32 Q 51.37 -14.85 51.52 -14.85 L 51.52 -14.85 Q 51.77 -14.88 52.1 -15.39 Q 52.42 -15.9 52.39 -16.24 L 52.39 -16.24 Q 52.39 -16.37 52.48 -16.48 Q 52.58 -16.59 52.7 -16.62 L 52.7 -16.62 Q 52.95 -16.77 53.13 -16.77 L 53.13 -16.77 Q 53.66 -16.77 54.09 -16.03 L 54.09 -16.03 Q 54.28 -15.62 54.28 -15.31 L 54.28 -15.31 Q 54.28 -15.04 54.13 -14.74 Q 53.97 -14.45 53.57 -13.98 L 53.57 -13.98 Q 53.04 -13.27 52.58 -13.27 L 52.58 -13.27 Q 52.27 -13.27 51.89 -13.58 L 51.89 -13.58 Z M 48.89 -0.99 Q 48.45 -1.43 48.45 -2.23 L 48.45 -2.23 Q 48.45 -2.67 48.61 -2.98 L 48.61 -2.98 Q 48.61 -3.13 48.67 -3.35 Q 48.73 -3.56 48.73 -3.63 L 48.73 -3.63 Q 48.7 -3.81 48.98 -4.65 L 48.98 -4.65 Q 49.54 -5.89 50.47 -9.02 L 50.47 -9.02 Q 50.47 -9.18 50.59 -9.28 Q 50.72 -9.39 50.96 -9.42 L 50.96 -9.42 Q 51.21 -9.49 51.3 -9.49 L 51.3 -9.49 Q 51.49 -9.49 51.63 -9.35 Q 51.77 -9.21 52.02 -8.83 L 52.02 -8.83 Q 52.2 -8.65 52.2 -8.28 L 52.2 -8.28 Q 52.2 -7.69 51.8 -6.85 L 51.8 -6.85 Q 51.4 -5.95 51.27 -5.3 L 51.27 -5.3 Q 50.9 -4.46 50.68 -3.75 L 50.68 -3.75 Q 50.62 -3.56 50.5 -3.01 Q 50.38 -2.45 50.16 -2.11 L 50.16 -2.11 Q 49.97 -1.24 49.82 -0.9 Q 49.66 -0.56 49.48 -0.56 L 49.48 -0.56 Q 49.26 -0.56 48.89 -0.99 L 48.89 -0.99 Z M 56.79 -0.22 Q 56.3 -0.31 55.78 -0.88 Q 55.27 -1.46 55.12 -1.95 L 55.12 -1.95 Q 55.12 -2.02 55.06 -2.09 Q 54.99 -2.17 54.96 -2.2 L 54.96 -2.2 Q 54.84 -2.29 54.84 -3.22 L 54.84 -3.22 Q 54.84 -3.97 54.92 -4.77 Q 54.99 -5.58 55.12 -6.08 L 55.12 -6.08 L 55.68 -7.72 L 56.11 -8.96 L 56.95 -10.76 L 55.71 -11.1 Q 55.49 -11.13 55.35 -11.31 Q 55.21 -11.5 55.21 -11.66 L 55.21 -11.66 Q 55.21 -11.9 55.47 -12.26 Q 55.74 -12.62 55.89 -12.62 L 55.89 -12.62 Q 55.99 -12.59 56.39 -12.59 L 56.39 -12.59 Q 57.32 -12.59 57.78 -12.68 L 57.78 -12.68 Q 58.09 -12.8 58.22 -13.18 L 58.22 -13.18 Q 58.34 -13.42 58.51 -13.79 Q 58.68 -14.17 58.84 -14.48 L 58.84 -14.48 Q 58.93 -14.66 59.13 -15.05 Q 59.33 -15.44 59.64 -15.93 L 59.64 -15.93 Q 59.71 -16.03 59.92 -16.38 Q 60.14 -16.74 60.45 -16.99 L 60.45 -16.99 Q 60.67 -17.2 60.98 -17.2 L 60.98 -17.2 Q 61.29 -17.2 61.78 -16.8 L 61.78 -16.8 Q 61.84 -16.71 61.95 -16.55 Q 62.06 -16.4 62.06 -16.27 L 62.06 -16.27 Q 62.06 -16.15 61.81 -15.75 L 61.81 -15.75 Q 61.63 -15.38 61.46 -15.08 Q 61.29 -14.79 61.16 -14.57 L 61.16 -14.57 Q 60.79 -13.95 60.64 -13.64 L 60.64 -13.64 Q 60.33 -13.24 60.33 -13.02 L 60.33 -13.02 Q 60.33 -12.8 60.73 -12.8 L 60.73 -12.8 Q 61.16 -12.8 62.19 -12.99 L 62.19 -12.99 Q 62.62 -13.05 62.77 -13.05 L 62.77 -13.05 Q 63.86 -13.05 63.95 -12.15 L 63.95 -12.15 Q 63.98 -11.97 63.98 -11.72 L 63.98 -11.72 Q 63.98 -11.28 63.69 -11.19 Q 63.39 -11.1 62.37 -11.1 L 62.37 -11.1 Q 61.38 -10.94 60.33 -10.94 L 60.33 -10.94 Q 60.14 -10.94 59.91 -10.93 Q 59.67 -10.91 59.43 -10.85 L 59.43 -10.85 Q 59.18 -10.79 59.07 -10.66 Q 58.96 -10.54 58.84 -10.26 L 58.84 -10.26 Q 58.74 -10.17 58.4 -9.55 L 58.4 -9.55 Q 57.97 -8.65 57.85 -8.46 L 57.85 -8.46 Q 57.01 -5.98 56.61 -3.38 L 56.61 -3.38 Q 56.54 -2.88 56.54 -2.76 L 56.54 -2.76 Q 56.54 -2.29 56.85 -2.11 Q 57.16 -1.92 57.91 -1.92 L 57.91 -1.92 Q 58.96 -1.92 59.74 -2.14 L 59.74 -2.14 Q 60.67 -2.54 61.13 -2.82 L 61.13 -2.82 Q 61.41 -2.98 61.64 -3.12 Q 61.88 -3.25 61.97 -3.32 L 61.97 -3.32 Q 62.06 -3.5 62.19 -3.5 L 62.19 -3.5 Q 62.43 -3.5 62.62 -3.01 L 62.62 -3.01 Q 62.62 -2.51 62.4 -2.14 Q 62.19 -1.77 61.32 -1.27 L 61.32 -1.27 Q 59.52 -0.12 57.72 -0.12 L 57.72 -0.12 Q 57.23 -0.12 56.79 -0.22 L 56.79 -0.22 Z M 73.66 -11.44 Q 74.15 -10.94 74.15 -10.42 L 74.15 -10.42 Q 74.15 -9.86 73.41 -8.46 L 73.41 -8.46 Q 73.16 -7.75 72.87 -7.13 Q 72.57 -6.51 72.42 -6.32 L 72.42 -6.32 L 71.7 -4.68 Q 71.24 -3.66 70.56 -2.29 L 70.56 -2.29 Q 69.72 -0.56 69.38 0.28 L 69.38 0.28 L 68.97 0.93 Q 67.42 3.41 66.59 4.4 L 66.59 4.4 Q 64.88 5.92 63.95 6.17 L 63.95 6.17 Q 63.55 6.29 62.99 6.29 L 62.99 6.29 Q 61.97 6.29 61.05 5.84 Q 60.14 5.39 60.02 4.8 L 60.02 4.8 Q 59.98 4.59 60.17 4.34 Q 60.36 4.09 60.57 4.09 L 60.57 4.09 Q 60.73 4.09 60.82 4.22 L 60.82 4.22 Q 61.07 4.4 61.55 4.57 Q 62.03 4.74 62.59 4.74 L 62.59 4.74 Q 62.81 4.74 63.18 4.68 L 63.18 4.68 Q 63.8 4.56 64.48 3.94 Q 65.16 3.32 65.72 2.57 L 65.72 2.57 Q 66.77 1.02 67.98 -1.3 L 67.98 -1.3 Q 67.55 -1.43 67.15 -1.91 Q 66.74 -2.39 66.51 -2.91 Q 66.28 -3.44 66.34 -3.69 L 66.34 -3.69 L 66.34 -4.03 Q 66.06 -4.03 65.89 -5.08 Q 65.72 -6.14 65.72 -7.53 L 65.72 -7.53 Q 65.72 -8.06 65.78 -8.87 L 65.78 -8.87 Q 65.91 -9.36 65.92 -10.09 Q 65.94 -10.82 65.94 -11.04 L 65.94 -11.04 L 65.94 -11.16 Q 65.94 -11.53 66.01 -11.69 Q 66.09 -11.84 66.28 -11.97 L 66.28 -11.97 Q 66.53 -12.09 66.77 -12.09 L 66.77 -12.09 Q 67.64 -12.09 67.64 -9.8 L 67.64 -9.8 Q 67.64 -9.46 67.58 -8.46 L 67.58 -8.46 Q 67.55 -8.03 67.55 -7.16 L 67.55 -7.16 Q 67.55 -5.55 67.83 -4.31 Q 68.11 -3.07 68.66 -2.6 L 68.66 -2.6 L 68.85 -3.04 Q 69.19 -3.94 69.38 -4.18 L 69.38 -4.18 Q 69.81 -5.08 69.87 -5.33 L 69.87 -5.33 Q 69.94 -5.55 70.21 -6.04 L 70.21 -6.04 L 70.62 -6.88 Q 70.68 -7.07 71.02 -8.08 Q 71.36 -9.08 71.7 -9.7 L 71.7 -9.7 Q 71.83 -9.95 72.07 -10.43 Q 72.32 -10.91 72.48 -11.13 Q 72.63 -11.35 72.82 -11.41 L 72.82 -11.41 Q 73.07 -11.63 73.22 -11.63 L 73.22 -11.63 Q 73.35 -11.63 73.66 -11.44 L 73.66 -11.44 Z M 76.82 -1.61 Q 76.23 -1.4 75.92 -1.4 L 75.92 -1.4 Q 75.48 -1.4 74.99 -1.77 L 74.99 -1.77 Q 74.55 -2.2 74.55 -2.63 L 74.55 -2.63 Q 74.55 -3.32 75.61 -4.03 L 75.61 -4.03 Q 76.23 -4.4 76.51 -4.4 L 76.51 -4.4 Q 76.66 -4.4 77.25 -4.18 L 77.25 -4.18 Q 78.09 -3.69 78.09 -3.04 L 78.09 -3.04 Q 78.09 -2.67 77.76 -2.29 Q 77.44 -1.92 76.82 -1.61 L 76.82 -1.61 Z M 99.32 1.77 Q 98.33 1.15 97.85 0.68 Q 97.37 0.22 97.37 -0.19 L 97.37 -0.19 Q 97.37 -0.59 97.9 -0.9 L 97.9 -0.9 Q 98.05 -0.99 98.44 -0.73 Q 98.83 -0.46 99.2 -0.09 L 99.2 -0.09 Q 100.01 0.65 101.31 0.65 L 101.31 0.65 Q 101.87 0.65 102.8 0.43 L 102.8 0.43 Q 104.07 0.06 105.04 -0.65 Q 106.02 -1.36 106.92 -2.48 L 106.92 -2.48 Q 107.48 -3.22 107.76 -4.12 Q 108.03 -5.02 108.03 -5.83 L 108.03 -5.83 Q 108.03 -6.82 107.66 -7.29 L 107.66 -7.29 Q 106.42 -8.96 104.13 -8.96 L 104.13 -8.96 Q 103.14 -8.96 102.27 -8.71 L 102.27 -8.71 L 100.47 -8.34 Q 100.41 -8.31 100.19 -8.26 Q 99.97 -8.21 99.51 -6.91 Q 99.04 -5.61 98.3 -3.5 L 98.3 -3.5 Q 97.65 -1.61 97.28 -0.85 Q 96.91 -0.09 96.6 -0.09 L 96.6 -0.09 Q 96.29 -0.09 95.85 -0.78 L 95.85 -0.78 Q 95.51 -1.33 95.51 -1.74 L 95.51 -1.74 Q 95.51 -2.14 95.79 -2.6 L 95.79 -2.6 Q 95.94 -2.88 96.05 -3.16 Q 96.16 -3.44 96.29 -3.94 L 96.29 -3.94 Q 96.69 -5.15 98.63 -9.95 Q 100.56 -14.76 101.65 -17.2 L 101.65 -17.2 Q 102.42 -18.97 102.11 -19.07 L 102.11 -19.07 Q 102.11 -19.16 102.02 -19.34 Q 101.93 -19.53 101.96 -19.62 L 101.96 -19.62 Q 101.96 -19.81 102.83 -20.18 Q 103.69 -20.55 104.1 -20.49 L 104.1 -20.49 L 104.28 -20.49 Q 104.69 -20.49 104.69 -20.65 L 104.69 -20.65 Q 104.75 -20.65 105.26 -20.71 Q 105.77 -20.77 106.36 -20.71 L 106.36 -20.71 Q 108.44 -20.52 109.58 -19.5 Q 110.73 -18.48 110.7 -16.77 L 110.7 -16.77 Q 110.67 -16 109.62 -14.49 Q 108.56 -12.99 107.51 -12.03 L 107.51 -12.03 Q 107.01 -11.59 106.38 -11.11 Q 105.74 -10.63 105.55 -10.51 L 105.55 -10.51 L 106.33 -10.23 Q 107.85 -9.67 108.73 -8.85 Q 109.62 -8.03 109.96 -6.67 L 109.96 -6.67 Q 110.02 -6.35 110.02 -6.11 L 110.02 -6.11 Q 110.02 -5.42 109.79 -4.56 Q 109.55 -3.69 109.27 -3.04 L 109.27 -3.04 Q 109.09 -2.85 108.96 -2.63 Q 108.84 -2.42 108.81 -2.36 L 108.81 -2.36 Q 108.78 -2.23 108.25 -1.41 Q 107.72 -0.59 107.32 -0.09 L 107.32 -0.09 Q 105.77 1.24 104.56 1.67 L 104.56 1.67 Q 103.26 2.26 101.62 2.26 L 101.62 2.26 Q 100.1 2.26 99.32 1.77 L 99.32 1.77 Z M 100.84 -10.17 Q 101.18 -10.23 102.22 -10.43 Q 103.26 -10.63 103.66 -10.79 L 103.66 -10.79 Q 103.73 -10.82 104.05 -10.99 Q 104.38 -11.16 104.72 -11.5 L 104.72 -11.5 Q 105.46 -12.18 106.55 -13.53 Q 107.63 -14.88 108.13 -15.81 L 108.13 -15.81 Q 108.9 -17.08 108.9 -17.67 L 108.9 -17.67 Q 108.9 -18.07 108.56 -18.41 L 108.56 -18.41 Q 108.16 -18.91 106.64 -18.91 L 106.64 -18.91 Q 105.65 -18.91 104.93 -18.72 L 104.93 -18.72 Q 104.5 -18.6 104.3 -18.43 Q 104.1 -18.26 104.1 -17.92 L 104.1 -17.92 Q 104.1 -17.45 103.6 -16.96 L 103.6 -16.96 Q 103.57 -16.77 103.46 -16.6 Q 103.35 -16.43 103.32 -16.4 L 103.32 -16.4 Q 103.32 -16.31 102.95 -15.47 L 102.95 -15.47 Q 102.45 -14.51 102.02 -13.3 L 102.02 -13.3 Q 100.84 -10.51 100.84 -10.17 L 100.84 -10.17 Z M 119.6 -0.06 Q 118.85 -0.78 118.48 -2.17 L 118.48 -2.17 Q 118.42 -2.36 118.42 -2.82 Q 118.42 -3.29 118.42 -3.47 L 118.42 -3.47 Q 118.23 -3.01 117.74 -2.63 L 117.74 -2.63 Q 117.02 -1.92 116.31 -1.58 L 116.31 -1.58 Q 115.23 -0.87 114.54 -0.87 L 114.54 -0.87 Q 113.92 -0.87 113.37 -1.55 L 113.37 -1.55 Q 112.96 -1.89 112.76 -2.23 Q 112.56 -2.57 112.56 -3.07 L 112.56 -3.07 Q 112.56 -3.41 112.65 -3.81 L 112.65 -3.81 Q 112.72 -4.96 112.98 -6.01 Q 113.24 -7.07 113.99 -8.71 L 113.99 -8.71 Q 114.98 -10.66 115.41 -11.31 L 115.41 -11.31 Q 115.57 -11.38 115.82 -11.38 L 115.82 -11.38 Q 116.13 -11.38 116.33 -11.19 Q 116.53 -11.01 116.56 -10.7 L 116.56 -10.7 Q 116.65 -10.57 116.65 -10.35 L 116.65 -10.35 Q 116.65 -9.58 115.72 -7.81 L 115.72 -7.81 Q 114.51 -4.9 114.51 -3.78 L 114.51 -3.78 Q 114.51 -3.13 114.89 -3.01 L 114.89 -3.01 Q 115.04 -2.91 115.23 -2.91 L 115.23 -2.91 Q 116 -2.91 117.09 -3.97 Q 118.17 -5.02 119.16 -7.35 L 119.16 -7.35 Q 119.6 -8.4 119.69 -9.52 L 119.69 -9.52 Q 119.66 -9.61 119.66 -9.8 L 119.66 -9.8 Q 119.66 -10.35 120.22 -10.7 L 120.22 -10.7 Q 120.34 -10.88 120.56 -10.99 Q 120.78 -11.1 120.84 -10.97 L 120.84 -10.97 L 121.33 -11.01 Q 121.43 -11.04 121.52 -10.83 Q 121.61 -10.63 121.71 -10.57 L 121.71 -10.57 Q 121.92 -10.38 121.92 -9.89 L 121.92 -9.89 Q 121.92 -8.87 121.02 -6.76 L 121.02 -6.76 Q 120.43 -5.52 120.23 -4.85 Q 120.03 -4.18 120 -3.56 L 120 -3.56 Q 120 -2.39 120.9 -1.61 L 120.9 -1.61 Q 121.21 -1.4 121.27 -1.15 Q 121.33 -0.9 121.3 -0.46 L 121.3 -0.46 Q 121.24 -0.19 120.95 -0.02 Q 120.65 0.15 120.31 0.15 L 120.31 0.15 Q 119.91 0.15 119.6 -0.06 L 119.6 -0.06 Z M 127.32 -13.58 Q 127.1 -13.79 126.94 -14.32 Q 126.79 -14.85 126.94 -14.85 L 126.94 -14.85 Q 127.19 -14.88 127.52 -15.39 Q 127.84 -15.9 127.81 -16.24 L 127.81 -16.24 Q 127.81 -16.37 127.91 -16.48 Q 128 -16.59 128.12 -16.62 L 128.12 -16.62 Q 128.37 -16.77 128.56 -16.77 L 128.56 -16.77 Q 129.08 -16.77 129.52 -16.03 L 129.52 -16.03 Q 129.7 -15.62 129.7 -15.31 L 129.7 -15.31 Q 129.7 -15.04 129.55 -14.74 Q 129.39 -14.45 128.99 -13.98 L 128.99 -13.98 Q 128.46 -13.27 128 -13.27 L 128 -13.27 Q 127.69 -13.27 127.32 -13.58 L 127.32 -13.58 Z M 124.31 -0.99 Q 123.88 -1.43 123.88 -2.23 L 123.88 -2.23 Q 123.88 -2.67 124.03 -2.98 L 124.03 -2.98 Q 124.03 -3.13 124.09 -3.35 Q 124.15 -3.56 124.15 -3.63 L 124.15 -3.63 Q 124.12 -3.81 124.4 -4.65 L 124.4 -4.65 Q 124.96 -5.89 125.89 -9.02 L 125.89 -9.02 Q 125.89 -9.18 126.01 -9.28 Q 126.14 -9.39 126.39 -9.42 L 126.39 -9.42 Q 126.63 -9.49 126.73 -9.49 L 126.73 -9.49 Q 126.91 -9.49 127.05 -9.35 Q 127.19 -9.21 127.44 -8.83 L 127.44 -8.83 Q 127.63 -8.65 127.63 -8.28 L 127.63 -8.28 Q 127.63 -7.69 127.22 -6.85 L 127.22 -6.85 Q 126.82 -5.95 126.7 -5.3 L 126.7 -5.3 Q 126.32 -4.46 126.11 -3.75 L 126.11 -3.75 Q 126.05 -3.56 125.92 -3.01 Q 125.8 -2.45 125.58 -2.11 L 125.58 -2.11 Q 125.39 -1.24 125.24 -0.9 Q 125.08 -0.56 124.9 -0.56 L 124.9 -0.56 Q 124.68 -0.56 124.31 -0.99 L 124.31 -0.99 Z M 130.7 0 Q 130.6 0.03 130.39 0.03 L 130.39 0.03 Q 129.89 0.03 129.61 -0.46 Q 129.33 -0.96 129.33 -1.83 L 129.33 -1.83 Q 129.33 -2.54 129.52 -3.47 L 129.52 -3.47 Q 129.86 -4.37 129.86 -4.77 L 129.86 -4.77 Q 129.95 -5.36 130.49 -6.9 Q 131.04 -8.43 131.19 -8.74 L 131.19 -8.74 Q 131.32 -8.74 131.41 -8.94 Q 131.5 -9.14 131.5 -9.39 L 131.5 -9.39 Q 131.5 -9.67 131.61 -9.97 Q 131.72 -10.26 131.84 -10.38 L 131.84 -10.38 Q 131.84 -10.48 131.92 -10.73 Q 132 -10.97 132 -11.07 L 132 -11.07 Q 132 -11.13 132.08 -11.3 Q 132.15 -11.47 132.15 -11.56 L 132.15 -11.56 Q 132.65 -12.52 133.89 -15.89 Q 135.13 -19.25 135.13 -19.62 L 135.13 -19.62 Q 135.13 -20.12 135.62 -20.12 L 135.62 -20.12 Q 135.78 -20.27 136.12 -20.27 L 136.12 -20.27 L 136.62 -19.78 Q 136.83 -19.56 136.9 -19.33 Q 136.96 -19.1 136.96 -18.63 L 136.96 -18.63 Q 136.96 -18.17 136.83 -17.82 Q 136.71 -17.48 136.21 -16.43 L 136.21 -16.43 Q 136.12 -16.21 135.97 -15.92 Q 135.81 -15.62 135.62 -15.19 L 135.62 -15.19 Q 135.56 -15.04 135.13 -14.07 L 135.13 -14.07 Q 134.82 -13.45 134.82 -13.36 L 134.82 -13.36 Q 134.82 -13.27 134.69 -12.97 Q 134.57 -12.68 134.48 -12.37 L 134.48 -12.37 Q 134.23 -11.87 133.69 -10.62 Q 133.14 -9.36 133.14 -9.24 L 133.14 -9.24 Q 133.14 -8.9 132.99 -8.74 L 132.99 -8.74 Q 132.9 -8.74 132.87 -8.6 Q 132.83 -8.46 132.83 -8.4 L 132.83 -8.4 Q 132.83 -8.09 132.34 -6.76 L 132.34 -6.76 L 132.06 -5.86 Q 131.47 -3.84 131.24 -2.91 Q 131.01 -1.98 131.01 -1.33 L 131.01 -1.33 Q 131.01 -0.56 130.96 -0.34 Q 130.91 -0.12 130.7 0 L 130.7 0 Z M 143.13 0.59 Q 142.35 0.78 142.07 -0.09 L 142.07 -0.09 Q 141.64 -1.3 141.64 -2.63 L 141.64 -2.63 Q 141.64 -3.01 141.67 -3.16 L 141.67 -3.16 L 141.73 -3.81 L 140.52 -2.85 Q 139.53 -1.98 138.55 -1.55 Q 137.58 -1.12 136.77 -1.12 L 136.77 -1.12 Q 136.24 -1.21 135.76 -1.57 Q 135.28 -1.92 135.07 -2.42 L 135.07 -2.42 Q 134.94 -2.67 134.94 -3.16 L 134.94 -3.16 Q 134.94 -4.31 135.56 -5.87 Q 136.18 -7.44 137.11 -8.46 L 137.11 -8.46 Q 138.45 -10.48 140.09 -10.48 L 140.09 -10.48 Q 140.86 -10.48 141.64 -10.01 L 141.64 -10.01 Q 142.41 -9.7 142.54 -9.7 L 142.54 -9.7 Q 142.72 -9.7 142.82 -9.86 Q 142.91 -10.01 143 -10.42 L 143 -10.42 Q 143.34 -11.84 143.65 -12.8 L 143.65 -12.8 Q 144.34 -14.85 144.83 -16.09 Q 145.33 -17.33 146.04 -18.82 L 146.04 -18.82 Q 146.35 -19.47 146.58 -19.67 Q 146.82 -19.87 147.09 -19.84 L 147.09 -19.84 Q 147.78 -19.84 148.15 -18.91 L 148.15 -18.91 Q 148.24 -18.69 148.24 -18.48 L 148.24 -18.48 Q 148.24 -18.26 148.06 -17.89 L 148.06 -17.89 Q 147.25 -16.49 146.07 -13.33 Q 144.89 -10.17 144.24 -7.84 L 144.24 -7.84 Q 143.96 -6.82 143.76 -4.9 Q 143.56 -2.98 143.56 -1.71 L 143.56 -1.71 Q 143.56 -1.15 143.62 -0.9 L 143.62 -0.9 Q 143.78 -0.37 143.78 0.03 L 143.78 0.03 Q 143.78 0.34 143.62 0.45 Q 143.47 0.56 143.13 0.59 L 143.13 0.59 Z M 137.89 -2.85 Q 138.6 -3.01 139.62 -3.78 L 139.62 -3.78 Q 139.81 -3.91 140.52 -4.43 Q 141.24 -4.96 141.61 -5.55 Q 141.98 -6.14 142.13 -6.88 L 142.13 -6.88 Q 142.17 -7.44 142.03 -7.8 Q 141.89 -8.15 141.48 -8.49 L 141.48 -8.49 Q 141.17 -8.71 140.71 -8.71 L 140.71 -8.71 Q 139.87 -8.71 139.16 -8.03 L 139.16 -8.03 Q 138.32 -7.29 137.67 -6.11 Q 137.02 -4.93 136.68 -3.38 L 136.68 -3.38 Q 136.59 -2.79 137.3 -2.79 L 137.3 -2.79 Q 137.67 -2.79 137.89 -2.85 L 137.89 -2.85 Z M 150.54 -13.58 Q 150.32 -13.79 150.16 -14.32 Q 150.01 -14.85 150.16 -14.85 L 150.16 -14.85 Q 150.41 -14.88 150.74 -15.39 Q 151.06 -15.9 151.03 -16.24 L 151.03 -16.24 Q 151.03 -16.37 151.12 -16.48 Q 151.22 -16.59 151.34 -16.62 L 151.34 -16.62 Q 151.59 -16.77 151.78 -16.77 L 151.78 -16.77 Q 152.3 -16.77 152.74 -16.03 L 152.74 -16.03 Q 152.92 -15.62 152.92 -15.31 L 152.92 -15.31 Q 152.92 -15.04 152.77 -14.74 Q 152.61 -14.45 152.21 -13.98 L 152.21 -13.98 Q 151.68 -13.27 151.22 -13.27 L 151.22 -13.27 Q 150.91 -13.27 150.54 -13.58 L 150.54 -13.58 Z M 147.53 -0.99 Q 147.09 -1.43 147.09 -2.23 L 147.09 -2.23 Q 147.09 -2.67 147.25 -2.98 L 147.25 -2.98 Q 147.25 -3.13 147.31 -3.35 Q 147.37 -3.56 147.37 -3.63 L 147.37 -3.63 Q 147.34 -3.81 147.62 -4.65 L 147.62 -4.65 Q 148.18 -5.89 149.11 -9.02 L 149.11 -9.02 Q 149.11 -9.18 149.23 -9.28 Q 149.36 -9.39 149.61 -9.42 L 149.61 -9.42 Q 149.85 -9.49 149.95 -9.49 L 149.95 -9.49 Q 150.13 -9.49 150.27 -9.35 Q 150.41 -9.21 150.66 -8.83 L 150.66 -8.83 Q 150.85 -8.65 150.85 -8.28 L 150.85 -8.28 Q 150.85 -7.69 150.44 -6.85 L 150.44 -6.85 Q 150.04 -5.95 149.92 -5.3 L 149.92 -5.3 Q 149.54 -4.46 149.33 -3.75 L 149.33 -3.75 Q 149.26 -3.56 149.14 -3.01 Q 149.02 -2.45 148.8 -2.11 L 148.8 -2.11 Q 148.61 -1.24 148.46 -0.9 Q 148.3 -0.56 148.12 -0.56 L 148.12 -0.56 Q 147.9 -0.56 147.53 -0.99 L 147.53 -0.99 Z M 163.96 -1.43 Q 163.34 -1.43 162.94 -1.69 Q 162.53 -1.95 162.25 -2.57 L 162.25 -2.57 Q 161.97 -3.56 161.97 -4.56 L 161.97 -4.56 Q 161.97 -5.02 162.07 -5.21 L 162.07 -5.21 Q 162.19 -5.33 162.18 -5.75 Q 162.16 -6.17 162.16 -6.35 L 162.16 -6.35 Q 162.13 -7.07 161.73 -7.07 L 161.73 -7.07 Q 161.45 -7.07 161.11 -6.85 L 161.11 -6.85 Q 159.37 -5.77 158.19 -4.99 Q 157.01 -4.22 155.93 -3.25 L 155.93 -3.25 Q 155.5 -2.76 155.28 -2.39 Q 155.06 -2.02 154.97 -1.88 Q 154.88 -1.74 154.72 -1.74 L 154.72 -1.74 Q 154.53 -1.67 154.47 -1.67 L 154.47 -1.67 Q 154.32 -1.67 154.1 -1.84 Q 153.88 -2.02 153.82 -2.08 L 153.82 -2.08 Q 153.7 -2.2 153.42 -2.5 Q 153.14 -2.79 153.11 -2.91 L 153.11 -2.91 Q 153.11 -3.16 153.31 -4.06 Q 153.51 -4.96 153.64 -5.21 L 153.64 -5.21 Q 153.73 -5.21 153.91 -5.6 Q 154.1 -5.98 154.26 -6.2 L 154.26 -6.2 Q 154.35 -6.67 155.06 -8.34 L 155.06 -8.34 Q 155.5 -9.08 155.67 -9.58 Q 155.84 -10.07 155.9 -10.82 L 155.9 -10.82 L 155.9 -10.88 Q 155.9 -11.01 155.99 -11.08 Q 156.08 -11.16 156.18 -11.16 L 156.18 -11.16 Q 156.39 -11.31 156.58 -11.31 L 156.58 -11.31 Q 156.98 -11.31 157.39 -10.82 L 157.39 -10.82 Q 157.85 -10.23 157.85 -9.58 L 157.85 -9.58 Q 157.85 -8.77 156.83 -7.04 L 156.83 -7.04 Q 156.74 -6.82 156.57 -6.42 Q 156.39 -6.01 156.39 -5.86 L 156.39 -5.86 L 158.13 -7.04 Q 158.38 -7.32 159.46 -8.03 Q 160.55 -8.74 160.98 -8.83 L 160.98 -8.83 Q 161.73 -9.18 161.91 -9.18 L 161.91 -9.18 Q 162.28 -9.18 162.92 -8.62 Q 163.56 -8.06 163.68 -7.69 L 163.68 -7.69 Q 163.68 -7.35 163.74 -7.19 L 163.74 -7.19 Q 163.9 -6.57 163.9 -5.74 L 163.9 -5.74 Q 163.9 -5.18 163.82 -4.73 Q 163.74 -4.28 163.62 -4.22 L 163.62 -4.22 Q 163.62 -4.18 163.65 -4.12 Q 163.68 -4.06 163.77 -4.06 L 163.77 -4.06 L 163.77 -3.91 Q 163.52 -3.91 163.71 -3.38 Q 163.9 -2.85 164.21 -2.57 L 164.21 -2.57 Q 164.52 -2.26 164.52 -1.95 L 164.52 -1.95 Q 164.52 -1.58 163.96 -1.43 L 163.96 -1.43 Z M 175.8 -9.36 Q 175.99 -8.99 175.99 -8.65 L 175.99 -8.65 Q 175.99 -8.18 175.61 -7.72 L 175.61 -7.72 Q 175.52 -7.56 175.27 -7.24 Q 175.03 -6.91 174.84 -6.57 Q 174.65 -6.23 174.56 -5.8 L 174.56 -5.8 Q 174.44 -5.08 173.82 -2.76 L 173.82 -2.76 L 173.48 -1.55 L 172.98 0.37 Q 171.58 5.18 170.19 5.92 L 170.19 5.92 Q 169.79 6.08 169.41 6.08 L 169.41 6.08 Q 168.73 6.08 168 5.63 Q 167.28 5.18 166.75 4.4 L 166.75 4.4 Q 166.44 3.97 166.14 3.02 Q 165.85 2.08 166.04 1.95 L 166.04 1.95 Q 166.1 1.89 166.25 1.89 L 166.25 1.89 Q 166.47 1.89 166.72 2.03 Q 166.97 2.17 167.03 2.36 L 167.03 2.36 Q 167.15 2.7 167.55 3.25 Q 167.96 3.81 168.14 3.84 L 168.14 3.84 Q 168.64 4.09 168.98 4.09 L 168.98 4.09 Q 169.26 4.09 169.51 3.91 L 169.51 3.91 Q 170 3.5 170.36 2.87 Q 170.72 2.23 171.15 0.84 L 171.15 0.84 L 171.4 -0.06 Q 172.14 -2.79 172.48 -3.6 L 172.48 -3.6 Q 172.64 -4.09 172.79 -4.37 L 172.79 -4.37 L 172.24 -3.88 Q 171.86 -3.53 171.46 -3.22 Q 171.06 -2.91 170.62 -2.73 L 170.62 -2.73 Q 170.41 -2.45 169.54 -2.45 L 169.54 -2.45 Q 168.92 -2.45 168.3 -2.63 L 168.3 -2.63 Q 167.65 -2.98 167.49 -3.16 Q 167.34 -3.35 167.06 -4.03 L 167.06 -4.03 Q 166.93 -4.28 166.93 -4.8 L 166.93 -4.8 Q 166.93 -6.14 167.55 -7.66 L 167.55 -7.66 Q 168.14 -8.87 169.41 -10.23 Q 170.69 -11.59 171.62 -11.87 L 171.62 -11.87 Q 171.99 -12.06 172.3 -12.06 L 172.3 -12.06 Q 172.64 -12.06 173.01 -11.94 L 173.01 -11.94 Q 173.51 -11.87 173.79 -11.72 Q 174.06 -11.56 174.72 -11.01 L 174.72 -11.01 Q 175.46 -10.26 175.8 -9.36 L 175.8 -9.36 Z M 172.39 -6.29 Q 172.92 -7.01 173.13 -7.83 Q 173.35 -8.65 173.29 -9.46 L 173.29 -9.46 Q 173.26 -9.89 173.17 -10.06 Q 173.07 -10.23 172.82 -10.23 L 172.82 -10.23 Q 172.24 -10.23 171.46 -9.67 Q 170.69 -9.11 169.97 -8.21 L 169.97 -8.21 Q 169.51 -7.59 169.2 -6.73 L 169.2 -6.73 Q 168.83 -5.67 168.83 -4.77 L 168.83 -4.77 Q 168.83 -4.09 169.07 -4 L 169.07 -4 Q 170.03 -4.03 170.83 -4.56 Q 171.62 -5.08 172.39 -6.29 L 172.39 -6.29 Z M 179.58 -1.61 Q 178.99 -1.4 178.68 -1.4 L 178.68 -1.4 Q 178.25 -1.4 177.75 -1.77 L 177.75 -1.77 Q 177.32 -2.2 177.32 -2.63 L 177.32 -2.63 Q 177.32 -3.32 178.37 -4.03 L 178.37 -4.03 Q 178.99 -4.4 179.27 -4.4 L 179.27 -4.4 Q 179.43 -4.4 180.02 -4.18 L 180.02 -4.18 Q 180.85 -3.69 180.85 -3.04 L 180.85 -3.04 Q 180.85 -2.67 180.53 -2.29 Q 180.2 -1.92 179.58 -1.61 L 179.58 -1.61 Z M 201.93 0.96 Q 201.53 0.4 199.11 0.5 L 199.11 0.5 L 198.83 0.53 Q 198.24 0.53 197.81 0.25 Q 197.38 -0.03 197.47 -0.37 L 197.47 -0.37 Q 197.53 -1.18 200.04 -1.21 L 200.04 -1.21 L 201.69 -1.24 L 202 -1.86 Q 202.24 -2.57 202.71 -4.15 L 202.71 -4.15 Q 202.86 -4.74 203.36 -6.14 L 203.36 -6.14 Q 204.32 -9.11 204.38 -9.36 L 204.38 -9.36 Q 204.54 -9.73 204.88 -10.85 Q 205.22 -11.97 205.41 -12.68 L 205.41 -12.68 Q 206.86 -17.17 206.58 -17.24 L 206.58 -17.24 Q 206.27 -17.27 204.89 -17.13 Q 203.51 -16.99 203.36 -16.89 L 203.36 -16.89 Q 203.27 -16.77 203.05 -16.77 L 203.05 -16.77 Q 202.86 -16.77 202.65 -16.91 Q 202.43 -17.05 202.37 -17.24 L 202.37 -17.24 Q 202.34 -17.36 202.34 -17.58 L 202.34 -17.58 Q 202.34 -17.79 202.52 -17.92 L 202.52 -17.92 Q 202.86 -18.2 204.03 -18.55 Q 205.19 -18.91 206.27 -19.03 L 206.27 -19.03 Q 206.8 -19.1 207.34 -19.27 Q 207.89 -19.44 208.16 -19.68 L 208.16 -19.68 Q 208.82 -19.9 209.25 -19.87 L 209.25 -19.87 Q 209.47 -19.72 210.3 -19.72 L 210.3 -19.72 Q 211.02 -19.72 211.39 -19.75 L 211.39 -19.75 Q 212.5 -19.87 213.28 -19.87 L 213.28 -19.87 Q 213.87 -19.87 214.13 -19.75 Q 214.4 -19.62 214.55 -19.34 L 214.55 -19.34 Q 214.67 -18.85 214.67 -18.69 L 214.67 -18.69 Q 214.67 -18.1 213.99 -18.14 L 213.99 -18.14 Q 213.47 -18.01 211.45 -17.95 L 211.45 -17.95 Q 209.25 -17.76 209.09 -17.52 L 209.09 -17.52 Q 208.94 -17.36 208.86 -17.24 Q 208.78 -17.11 208.69 -16.99 L 208.69 -16.99 Q 208.72 -16.86 208.55 -16.2 Q 208.38 -15.53 208.13 -14.85 L 208.13 -14.85 L 207.58 -13.21 Q 206.71 -10.51 206.46 -9.89 L 206.46 -9.89 Q 206.24 -9.36 206.15 -8.8 L 206.15 -8.8 Q 205.62 -6.97 205.28 -5.91 Q 204.94 -4.84 204.75 -4.18 L 204.75 -4.18 Q 204.17 -2.45 203.86 -1.27 L 203.86 -1.27 L 205.62 -1.43 Q 207.45 -1.61 208.01 -1.61 L 208.01 -1.61 Q 208.44 -1.61 208.61 -1.52 Q 208.78 -1.43 208.88 -1.15 L 208.88 -1.15 Q 209.25 -0.68 209.25 -0.37 L 209.25 -0.37 Q 209.25 0 208.66 0.15 Q 208.07 0.31 206.83 0.28 L 206.83 0.28 Q 205.41 0.34 204.46 0.39 Q 203.51 0.43 203.19 0.53 Q 202.86 0.62 202.8 0.84 L 202.8 0.84 Q 202.8 1.08 202.52 1.08 L 202.52 1.08 Q 202.21 1.08 201.93 0.96 L 201.93 0.96 Z M 222.15 -1.43 Q 221.53 -1.43 221.12 -1.69 Q 220.72 -1.95 220.44 -2.57 L 220.44 -2.57 Q 220.16 -3.56 220.16 -4.56 L 220.16 -4.56 Q 220.16 -5.02 220.25 -5.21 L 220.25 -5.21 Q 220.38 -5.33 220.36 -5.75 Q 220.35 -6.17 220.35 -6.35 L 220.35 -6.35 Q 220.32 -7.07 219.91 -7.07 L 219.91 -7.07 Q 219.63 -7.07 219.29 -6.85 L 219.29 -6.85 Q 217.56 -5.77 216.38 -4.99 Q 215.2 -4.22 214.12 -3.25 L 214.12 -3.25 Q 213.68 -2.76 213.47 -2.39 Q 213.25 -2.02 213.16 -1.88 Q 213.06 -1.74 212.91 -1.74 L 212.91 -1.74 Q 212.72 -1.67 212.66 -1.67 L 212.66 -1.67 Q 212.5 -1.67 212.29 -1.84 Q 212.07 -2.02 212.01 -2.08 L 212.01 -2.08 Q 211.88 -2.2 211.61 -2.5 Q 211.33 -2.79 211.3 -2.91 L 211.3 -2.91 Q 211.3 -3.16 211.5 -4.06 Q 211.7 -4.96 211.82 -5.21 L 211.82 -5.21 Q 211.92 -5.21 212.1 -5.6 Q 212.29 -5.98 212.44 -6.2 L 212.44 -6.2 Q 212.54 -6.67 213.25 -8.34 L 213.25 -8.34 Q 213.68 -9.08 213.85 -9.58 Q 214.02 -10.07 214.09 -10.82 L 214.09 -10.82 L 214.09 -10.88 Q 214.09 -11.01 214.18 -11.08 Q 214.27 -11.16 214.36 -11.16 L 214.36 -11.16 Q 214.58 -11.31 214.77 -11.31 L 214.77 -11.31 Q 215.17 -11.31 215.57 -10.82 L 215.57 -10.82 Q 216.04 -10.23 216.04 -9.58 L 216.04 -9.58 Q 216.04 -8.77 215.02 -7.04 L 215.02 -7.04 Q 214.92 -6.82 214.75 -6.42 Q 214.58 -6.01 214.58 -5.86 L 214.58 -5.86 L 216.32 -7.04 Q 216.57 -7.32 217.65 -8.03 Q 218.74 -8.74 219.17 -8.83 L 219.17 -8.83 Q 219.91 -9.18 220.1 -9.18 L 220.1 -9.18 Q 220.47 -9.18 221.11 -8.62 Q 221.74 -8.06 221.87 -7.69 L 221.87 -7.69 Q 221.87 -7.35 221.93 -7.19 L 221.93 -7.19 Q 222.08 -6.57 222.08 -5.74 L 222.08 -5.74 Q 222.08 -5.18 222.01 -4.73 Q 221.93 -4.28 221.8 -4.22 L 221.8 -4.22 Q 221.8 -4.18 221.84 -4.12 Q 221.87 -4.06 221.96 -4.06 L 221.96 -4.06 L 221.96 -3.91 Q 221.71 -3.91 221.9 -3.38 Q 222.08 -2.85 222.39 -2.57 L 222.39 -2.57 Q 222.7 -2.26 222.7 -1.95 L 222.7 -1.95 Q 222.7 -1.58 222.15 -1.43 L 222.15 -1.43 Z M 236.1 -1.43 Q 235.48 -1.43 235.07 -1.69 Q 234.67 -1.95 234.39 -2.57 L 234.39 -2.57 Q 234.11 -3.56 234.11 -4.56 L 234.11 -4.56 Q 234.11 -5.02 234.2 -5.21 L 234.2 -5.21 Q 234.33 -5.33 234.31 -5.75 Q 234.3 -6.17 234.3 -6.35 L 234.3 -6.35 Q 234.27 -7.07 233.86 -7.07 L 233.86 -7.07 Q 233.58 -7.07 233.24 -6.85 L 233.24 -6.85 Q 231.51 -5.77 230.33 -4.99 Q 229.15 -4.22 228.07 -3.25 L 228.07 -3.25 Q 227.63 -2.76 227.42 -2.39 Q 227.2 -2.02 227.11 -1.88 Q 227.01 -1.74 226.86 -1.74 L 226.86 -1.74 Q 226.67 -1.67 226.61 -1.67 L 226.61 -1.67 Q 226.45 -1.67 226.24 -1.84 Q 226.02 -2.02 225.96 -2.08 L 225.96 -2.08 Q 225.83 -2.2 225.56 -2.5 Q 225.28 -2.79 225.25 -2.91 L 225.25 -2.91 Q 225.25 -3.16 225.45 -4.06 Q 225.65 -4.96 225.77 -5.21 L 225.77 -5.21 Q 225.87 -5.21 226.05 -5.6 Q 226.24 -5.98 226.39 -6.2 L 226.39 -6.2 Q 226.49 -6.67 227.2 -8.34 L 227.2 -8.34 Q 227.63 -9.08 227.8 -9.58 Q 227.97 -10.07 228.04 -10.82 L 228.04 -10.82 L 228.04 -10.88 Q 228.04 -11.01 228.13 -11.08 Q 228.22 -11.16 228.31 -11.16 L 228.31 -11.16 Q 228.53 -11.31 228.72 -11.31 L 228.72 -11.31 Q 229.12 -11.31 229.52 -10.82 L 229.52 -10.82 Q 229.99 -10.23 229.99 -9.58 L 229.99 -9.58 Q 229.99 -8.77 228.97 -7.04 L 228.97 -7.04 Q 228.87 -6.82 228.7 -6.42 Q 228.53 -6.01 228.53 -5.86 L 228.53 -5.86 L 230.27 -7.04 Q 230.52 -7.32 231.6 -8.03 Q 232.69 -8.74 233.12 -8.83 L 233.12 -8.83 Q 233.86 -9.18 234.05 -9.18 L 234.05 -9.18 Q 234.42 -9.18 235.06 -8.62 Q 235.69 -8.06 235.82 -7.69 L 235.82 -7.69 Q 235.82 -7.35 235.88 -7.19 L 235.88 -7.19 Q 236.03 -6.57 236.03 -5.74 L 236.03 -5.74 Q 236.03 -5.18 235.96 -4.73 Q 235.88 -4.28 235.75 -4.22 L 235.75 -4.22 Q 235.75 -4.18 235.79 -4.12 Q 235.82 -4.06 235.91 -4.06 L 235.91 -4.06 L 235.91 -3.91 Q 235.66 -3.91 235.85 -3.38 Q 236.03 -2.85 236.34 -2.57 L 236.34 -2.57 Q 236.65 -2.26 236.65 -1.95 L 236.65 -1.95 Q 236.65 -1.58 236.1 -1.43 L 236.1 -1.43 Z M 241.21 -0.46 Q 240.84 -0.46 240.62 -0.59 Q 240.4 -0.71 240 -1.05 L 240 -1.05 Q 238.98 -2.14 238.98 -3.04 L 238.98 -3.04 Q 238.98 -3.25 239.01 -3.35 L 239.01 -3.35 Q 239.1 -3.56 239.09 -3.78 Q 239.07 -4 239.07 -4.06 L 239.07 -4.06 Q 238.95 -4.18 238.95 -4.23 Q 238.95 -4.28 239.01 -4.32 Q 239.07 -4.37 239.1 -4.43 L 239.1 -4.43 Q 239.29 -4.43 239.23 -4.77 L 239.23 -4.77 Q 239.16 -5.02 239.47 -5.87 Q 239.78 -6.73 240.25 -7.44 L 240.25 -7.44 Q 240.59 -8 241.26 -8.83 Q 241.92 -9.67 242.45 -10.11 L 242.45 -10.11 Q 243.19 -10.76 243.78 -11.07 Q 244.37 -11.38 245.09 -11.53 L 245.09 -11.53 Q 245.71 -11.69 245.92 -11.69 L 245.92 -11.69 Q 246.14 -11.69 246.31 -11.58 Q 246.48 -11.47 246.76 -11.19 L 246.76 -11.19 Q 247.6 -10.82 247.92 -10.25 Q 248.25 -9.67 248.25 -8.46 L 248.25 -8.46 Q 248.25 -6.45 246.6 -4.09 L 246.6 -4.09 Q 245.89 -3.07 245.27 -2.53 Q 244.65 -1.98 243.63 -1.36 L 243.63 -1.36 Q 242.98 -0.9 242.44 -0.7 Q 241.89 -0.5 241.21 -0.46 L 241.21 -0.46 Z M 244.19 -3.75 Q 244.93 -4.59 245.38 -5.33 Q 245.83 -6.08 246.23 -7.22 L 246.23 -7.22 Q 246.39 -7.75 246.39 -8.49 L 246.39 -8.49 Q 246.39 -9.42 246.14 -9.55 L 246.14 -9.55 Q 245.83 -9.7 245.52 -9.7 L 245.52 -9.7 Q 244.84 -9.7 244.09 -9.08 L 244.09 -9.08 Q 243.19 -8.31 242.48 -7.18 Q 241.77 -6.04 241.02 -4.37 L 241.02 -4.37 Q 240.71 -3.72 240.71 -3.1 L 240.71 -3.1 Q 240.71 -2.63 240.95 -2.36 Q 241.18 -2.08 241.58 -2.08 L 241.58 -2.08 Q 242.61 -2.08 244.19 -3.75 L 244.19 -3.75 Z M 252.74 -1.89 Q 252.4 -2.14 251.89 -3.97 Q 251.38 -5.8 251.1 -7.5 L 251.1 -7.5 Q 250.98 -8.15 250.6 -9.27 L 250.6 -9.27 Q 250.48 -9.77 250.48 -9.95 L 250.48 -9.95 Q 250.48 -10.51 250.94 -10.79 L 250.94 -10.79 Q 251.07 -10.88 251.3 -10.93 Q 251.53 -10.97 251.69 -10.94 L 251.69 -10.94 Q 252.37 -10.7 252.93 -7.16 L 252.93 -7.16 Q 253.02 -6.26 253.21 -5.55 Q 253.39 -4.84 253.42 -4.71 L 253.42 -4.71 Q 253.52 -4.53 253.64 -4.32 Q 253.77 -4.12 253.92 -4.12 L 253.92 -4.12 Q 254.01 -4.12 254.14 -4.25 L 254.14 -4.25 Q 254.73 -4.84 255.41 -5.74 L 255.41 -5.74 Q 256.15 -6.76 256.43 -7.1 L 256.43 -7.1 Q 256.77 -7.63 257.33 -8.34 L 257.33 -8.34 Q 257.42 -8.46 257.76 -8.93 Q 258.11 -9.39 258.42 -9.72 Q 258.73 -10.04 258.94 -10.11 L 258.94 -10.11 Q 259.04 -10.14 259.22 -10.14 L 259.22 -10.14 Q 259.75 -10.14 259.75 -9.7 L 259.75 -9.7 Q 259.75 -9.3 259.19 -8.49 L 259.19 -8.49 Q 259 -8.25 258.8 -7.83 Q 258.6 -7.41 258.54 -7.35 L 258.54 -7.35 Q 258.2 -6.67 257.28 -5.42 Q 256.37 -4.18 256.06 -3.88 L 256.06 -3.88 Q 256 -3.81 255.55 -3.44 Q 255.1 -3.07 254.73 -2.54 L 254.73 -2.54 Q 253.73 -1.61 253.3 -1.61 L 253.3 -1.61 Q 253.02 -1.61 252.74 -1.89 L 252.74 -1.89 Z M 260.34 -1.12 Q 260.24 -1.3 260.04 -1.5 Q 259.84 -1.71 259.84 -1.77 L 259.84 -1.77 Q 259.84 -2.11 259.69 -2.29 L 259.69 -2.29 Q 259.62 -2.36 259.62 -2.57 L 259.62 -2.57 Q 259.62 -3.07 260.11 -4.26 Q 260.59 -5.46 261.36 -6.85 L 261.36 -6.85 Q 261.55 -7.04 261.84 -7.5 Q 262.14 -7.97 262.23 -8.03 L 262.23 -8.03 Q 262.23 -8.15 262.32 -8.26 Q 262.41 -8.37 262.54 -8.37 L 262.54 -8.37 L 262.54 -8.56 Q 262.54 -8.83 263.56 -9.9 Q 264.58 -10.97 265.24 -11.38 L 265.24 -11.38 Q 266.01 -11.9 266.82 -11.9 L 266.82 -11.9 Q 267.37 -11.9 267.78 -11.59 L 267.78 -11.59 Q 267.93 -11.41 269.2 -10.26 L 269.2 -10.26 L 270.35 -9.24 L 269.79 -7.69 Q 269.51 -6.85 269.51 -6.17 L 269.51 -6.17 Q 269.51 -4.99 270.2 -3.91 L 270.2 -3.91 Q 270.35 -3.56 270.82 -3.25 Q 271.28 -2.94 271.75 -2.88 L 271.75 -2.88 Q 272.43 -2.76 272.43 -2.2 L 272.43 -2.2 Q 272.43 -1.58 271.87 -1.46 L 271.87 -1.46 Q 271.75 -1.43 271.5 -1.43 L 271.5 -1.43 Q 269.67 -1.43 268.34 -4 L 268.34 -4 Q 268.21 -4.18 268.01 -4.68 Q 267.81 -5.18 267.78 -5.36 L 267.78 -5.36 Q 267.59 -5.12 267.31 -4.77 Q 267.03 -4.43 266.79 -4.18 L 266.79 -4.18 Q 263.41 -0.81 261.45 -0.81 L 261.45 -0.81 Q 260.83 -0.81 260.34 -1.12 L 260.34 -1.12 Z M 261.45 -2.85 Q 261.45 -2.7 261.78 -2.76 Q 262.1 -2.82 262.59 -3.07 Q 263.07 -3.32 263.56 -3.72 L 263.56 -3.72 Q 266.23 -6.01 267.41 -7.72 L 267.41 -7.72 L 268.09 -8.83 Q 267.78 -9.49 267.44 -9.78 Q 267.1 -10.07 266.82 -10.07 L 266.82 -10.07 Q 266.17 -10.07 264.77 -8.45 Q 263.38 -6.82 262.23 -4.62 L 262.23 -4.62 Q 261.95 -4.09 261.73 -3.55 Q 261.52 -3.01 261.45 -2.85 L 261.45 -2.85 Z M 276.12 -0.22 Q 275.62 -0.31 275.11 -0.88 Q 274.6 -1.46 274.44 -1.95 L 274.44 -1.95 Q 274.44 -2.02 274.38 -2.09 Q 274.32 -2.17 274.29 -2.2 L 274.29 -2.2 Q 274.16 -2.29 274.16 -3.22 L 274.16 -3.22 Q 274.16 -3.97 274.24 -4.77 Q 274.32 -5.58 274.44 -6.08 L 274.44 -6.08 L 275 -7.72 L 275.44 -8.96 L 276.27 -10.76 L 275.03 -11.1 Q 274.81 -11.13 274.68 -11.31 Q 274.54 -11.5 274.54 -11.66 L 274.54 -11.66 Q 274.54 -11.9 274.8 -12.26 Q 275.06 -12.62 275.22 -12.62 L 275.22 -12.62 Q 275.31 -12.59 275.71 -12.59 L 275.71 -12.59 Q 276.64 -12.59 277.11 -12.68 L 277.11 -12.68 Q 277.42 -12.8 277.54 -13.18 L 277.54 -13.18 Q 277.67 -13.42 277.84 -13.79 Q 278.01 -14.17 278.16 -14.48 L 278.16 -14.48 Q 278.26 -14.66 278.46 -15.05 Q 278.66 -15.44 278.97 -15.93 L 278.97 -15.93 Q 279.03 -16.03 279.25 -16.38 Q 279.46 -16.74 279.77 -16.99 L 279.77 -16.99 Q 279.99 -17.2 280.3 -17.2 L 280.3 -17.2 Q 280.61 -17.2 281.11 -16.8 L 281.11 -16.8 Q 281.17 -16.71 281.28 -16.55 Q 281.39 -16.4 281.39 -16.27 L 281.39 -16.27 Q 281.39 -16.15 281.14 -15.75 L 281.14 -15.75 Q 280.95 -15.38 280.78 -15.08 Q 280.61 -14.79 280.49 -14.57 L 280.49 -14.57 Q 280.12 -13.95 279.96 -13.64 L 279.96 -13.64 Q 279.65 -13.24 279.65 -13.02 L 279.65 -13.02 Q 279.65 -12.8 280.05 -12.8 L 280.05 -12.8 Q 280.49 -12.8 281.51 -12.99 L 281.51 -12.99 Q 281.94 -13.05 282.1 -13.05 L 282.1 -13.05 Q 283.19 -13.05 283.28 -12.15 L 283.28 -12.15 Q 283.31 -11.97 283.31 -11.72 L 283.31 -11.72 Q 283.31 -11.28 283.01 -11.19 Q 282.72 -11.1 281.7 -11.1 L 281.7 -11.1 Q 280.7 -10.94 279.65 -10.94 L 279.65 -10.94 Q 279.46 -10.94 279.23 -10.93 Q 279 -10.91 278.75 -10.85 L 278.75 -10.85 Q 278.5 -10.79 278.4 -10.66 Q 278.29 -10.54 278.16 -10.26 L 278.16 -10.26 Q 278.07 -10.17 277.73 -9.55 L 277.73 -9.55 Q 277.29 -8.65 277.17 -8.46 L 277.17 -8.46 Q 276.33 -5.98 275.93 -3.38 L 275.93 -3.38 Q 275.87 -2.88 275.87 -2.76 L 275.87 -2.76 Q 275.87 -2.29 276.18 -2.11 Q 276.49 -1.92 277.23 -1.92 L 277.23 -1.92 Q 278.29 -1.92 279.06 -2.14 L 279.06 -2.14 Q 279.99 -2.54 280.46 -2.82 L 280.46 -2.82 Q 280.74 -2.98 280.97 -3.12 Q 281.2 -3.25 281.29 -3.32 L 281.29 -3.32 Q 281.39 -3.5 281.51 -3.5 L 281.51 -3.5 Q 281.76 -3.5 281.94 -3.01 L 281.94 -3.01 Q 281.94 -2.51 281.73 -2.14 Q 281.51 -1.77 280.64 -1.27 L 280.64 -1.27 Q 278.84 -0.12 277.05 -0.12 L 277.05 -0.12 Q 276.55 -0.12 276.12 -0.22 L 276.12 -0.22 Z M 287.43 -13.58 Q 287.21 -13.79 287.06 -14.32 Q 286.9 -14.85 287.06 -14.85 L 287.06 -14.85 Q 287.31 -14.88 287.63 -15.39 Q 287.96 -15.9 287.93 -16.24 L 287.93 -16.24 Q 287.93 -16.37 288.02 -16.48 Q 288.11 -16.59 288.24 -16.62 L 288.24 -16.62 Q 288.49 -16.77 288.67 -16.77 L 288.67 -16.77 Q 289.2 -16.77 289.63 -16.03 L 289.63 -16.03 Q 289.82 -15.62 289.82 -15.31 L 289.82 -15.31 Q 289.82 -15.04 289.66 -14.74 Q 289.51 -14.45 289.11 -13.98 L 289.11 -13.98 Q 288.58 -13.27 288.11 -13.27 L 288.11 -13.27 Q 287.8 -13.27 287.43 -13.58 L 287.43 -13.58 Z M 284.42 -0.99 Q 283.99 -1.43 283.99 -2.23 L 283.99 -2.23 Q 283.99 -2.67 284.15 -2.98 L 284.15 -2.98 Q 284.15 -3.13 284.21 -3.35 Q 284.27 -3.56 284.27 -3.63 L 284.27 -3.63 Q 284.24 -3.81 284.52 -4.65 L 284.52 -4.65 Q 285.08 -5.89 286.01 -9.02 L 286.01 -9.02 Q 286.01 -9.18 286.13 -9.28 Q 286.25 -9.39 286.5 -9.42 L 286.5 -9.42 Q 286.75 -9.49 286.84 -9.49 L 286.84 -9.49 Q 287.03 -9.49 287.17 -9.35 Q 287.31 -9.21 287.56 -8.83 L 287.56 -8.83 Q 287.74 -8.65 287.74 -8.28 L 287.74 -8.28 Q 287.74 -7.69 287.34 -6.85 L 287.34 -6.85 Q 286.94 -5.95 286.81 -5.3 L 286.81 -5.3 Q 286.44 -4.46 286.22 -3.75 L 286.22 -3.75 Q 286.16 -3.56 286.04 -3.01 Q 285.91 -2.45 285.7 -2.11 L 285.7 -2.11 Q 285.51 -1.24 285.35 -0.9 Q 285.2 -0.56 285.01 -0.56 L 285.01 -0.56 Q 284.8 -0.56 284.42 -0.99 L 284.42 -0.99 Z M 292.02 -0.46 Q 291.65 -0.46 291.43 -0.59 Q 291.21 -0.71 290.81 -1.05 L 290.81 -1.05 Q 289.79 -2.14 289.79 -3.04 L 289.79 -3.04 Q 289.79 -3.25 289.82 -3.35 L 289.82 -3.35 Q 289.91 -3.56 289.9 -3.78 Q 289.88 -4 289.88 -4.06 L 289.88 -4.06 Q 289.76 -4.18 289.76 -4.23 Q 289.76 -4.28 289.82 -4.32 Q 289.88 -4.37 289.91 -4.43 L 289.91 -4.43 Q 290.1 -4.43 290.04 -4.77 L 290.04 -4.77 Q 289.97 -5.02 290.28 -5.87 Q 290.59 -6.73 291.06 -7.44 L 291.06 -7.44 Q 291.4 -8 292.07 -8.83 Q 292.73 -9.67 293.26 -10.11 L 293.26 -10.11 Q 294 -10.76 294.59 -11.07 Q 295.18 -11.38 295.89 -11.53 L 295.89 -11.53 Q 296.51 -11.69 296.73 -11.69 L 296.73 -11.69 Q 296.95 -11.69 297.12 -11.58 Q 297.29 -11.47 297.57 -11.19 L 297.57 -11.19 Q 298.41 -10.82 298.73 -10.25 Q 299.06 -9.67 299.06 -8.46 L 299.06 -8.46 Q 299.06 -6.45 297.41 -4.09 L 297.41 -4.09 Q 296.7 -3.07 296.08 -2.53 Q 295.46 -1.98 294.44 -1.36 L 294.44 -1.36 Q 293.79 -0.9 293.24 -0.7 Q 292.7 -0.5 292.02 -0.46 L 292.02 -0.46 Z M 295 -3.75 Q 295.74 -4.59 296.19 -5.33 Q 296.64 -6.08 297.04 -7.22 L 297.04 -7.22 Q 297.2 -7.75 297.2 -8.49 L 297.2 -8.49 Q 297.2 -9.42 296.95 -9.55 L 296.95 -9.55 Q 296.64 -9.7 296.33 -9.7 L 296.33 -9.7 Q 295.65 -9.7 294.9 -9.08 L 294.9 -9.08 Q 294 -8.31 293.29 -7.18 Q 292.58 -6.04 291.83 -4.37 L 291.83 -4.37 Q 291.52 -3.72 291.52 -3.1 L 291.52 -3.1 Q 291.52 -2.63 291.76 -2.36 Q 291.99 -2.08 292.39 -2.08 L 292.39 -2.08 Q 293.42 -2.08 295 -3.75 L 295 -3.75 Z M 311.8 -1.43 Q 311.18 -1.43 310.77 -1.69 Q 310.37 -1.95 310.09 -2.57 L 310.09 -2.57 Q 309.81 -3.56 309.81 -4.56 L 309.81 -4.56 Q 309.81 -5.02 309.91 -5.21 L 309.91 -5.21 Q 310.03 -5.33 310.02 -5.75 Q 310 -6.17 310 -6.35 L 310 -6.35 Q 309.97 -7.07 309.57 -7.07 L 309.57 -7.07 Q 309.29 -7.07 308.95 -6.85 L 308.95 -6.85 Q 307.21 -5.77 306.03 -4.99 Q 304.85 -4.22 303.77 -3.25 L 303.77 -3.25 Q 303.33 -2.76 303.12 -2.39 Q 302.9 -2.02 302.81 -1.88 Q 302.71 -1.74 302.56 -1.74 L 302.56 -1.74 Q 302.37 -1.67 302.31 -1.67 L 302.31 -1.67 Q 302.16 -1.67 301.94 -1.84 Q 301.72 -2.02 301.66 -2.08 L 301.66 -2.08 Q 301.54 -2.2 301.26 -2.5 Q 300.98 -2.79 300.95 -2.91 L 300.95 -2.91 Q 300.95 -3.16 301.15 -4.06 Q 301.35 -4.96 301.47 -5.21 L 301.47 -5.21 Q 301.57 -5.21 301.75 -5.6 Q 301.94 -5.98 302.09 -6.2 L 302.09 -6.2 Q 302.19 -6.67 302.9 -8.34 L 302.9 -8.34 Q 303.33 -9.08 303.51 -9.58 Q 303.68 -10.07 303.74 -10.82 L 303.74 -10.82 L 303.74 -10.88 Q 303.74 -11.01 303.83 -11.08 Q 303.92 -11.16 304.02 -11.16 L 304.02 -11.16 Q 304.23 -11.31 304.42 -11.31 L 304.42 -11.31 Q 304.82 -11.31 305.23 -10.82 L 305.23 -10.82 Q 305.69 -10.23 305.69 -9.58 L 305.69 -9.58 Q 305.69 -8.77 304.67 -7.04 L 304.67 -7.04 Q 304.57 -6.82 304.4 -6.42 Q 304.23 -6.01 304.23 -5.86 L 304.23 -5.86 L 305.97 -7.04 Q 306.22 -7.32 307.3 -8.03 Q 308.39 -8.74 308.82 -8.83 L 308.82 -8.83 Q 309.57 -9.18 309.75 -9.18 L 309.75 -9.18 Q 310.12 -9.18 310.76 -8.62 Q 311.39 -8.06 311.52 -7.69 L 311.52 -7.69 Q 311.52 -7.35 311.58 -7.19 L 311.58 -7.19 Q 311.74 -6.57 311.74 -5.74 L 311.74 -5.74 Q 311.74 -5.18 311.66 -4.73 Q 311.58 -4.28 311.46 -4.22 L 311.46 -4.22 Q 311.46 -4.18 311.49 -4.12 Q 311.52 -4.06 311.61 -4.06 L 311.61 -4.06 L 311.61 -3.91 Q 311.36 -3.91 311.55 -3.38 Q 311.74 -2.85 312.05 -2.57 L 312.05 -2.57 Q 312.36 -2.26 312.36 -1.95 L 312.36 -1.95 Q 312.36 -1.58 311.8 -1.43 L 311.8 -1.43 Z M 316.42 -1.61 Q 315.83 -1.4 315.52 -1.4 L 315.52 -1.4 Q 315.08 -1.4 314.59 -1.77 L 314.59 -1.77 Q 314.15 -2.2 314.15 -2.63 L 314.15 -2.63 Q 314.15 -3.32 315.21 -4.03 L 315.21 -4.03 Q 315.83 -4.4 316.11 -4.4 L 316.11 -4.4 Q 316.26 -4.4 316.85 -4.18 L 316.85 -4.18 Q 317.69 -3.69 317.69 -3.04 L 317.69 -3.04 Q 317.69 -2.67 317.36 -2.29 Q 317.04 -1.92 316.42 -1.61 L 316.42 -1.61 Z" stroke-linecap="round" />
</g>
<g transform="matrix(1.0797061148246656 0 0 1.0797061148246656 291.269810732775 512.0123124187642)" id="logo-logo"  >
<g style=""  paint-order="stroke"   >
		<g transform="matrix(1.3648868625984483 0 0 1.3648868625984483 0 0)"  >
<g style=""  paint-order="stroke"   >
		<g transform="matrix(1 0 0 1 0 0)"  >
<path style="stroke: none; stroke-width: 1; stroke-dasharray: none; stroke-linecap: butt; stroke-dashoffset: 0; stroke-linejoin: miter; stroke-miterlimit: 4; fill: #9b6438; fill-rule: nonzero; opacity: 1;"  paint-order="stroke"  transform=" translate(-100.6379363084566, -101.03706504899883)" d="M 196.85 90.33 L 111.34 4.83 a 15.15 15.15 0 0 0 -21.4 0 L 4.43 90.33 a 15.15 15.15 0 0 0 0 21.41 l 85.51 85.5 a 15.14 15.14 0 0 0 21.4 0 l 85.51 -85.5 A 15.16 15.16 0 0 0 196.85 90.33 Z M 196 97.44 H 174.67 a 12.39 12.39 0 0 0 -1.33 -3.09 h 20.88 A 10.37 10.37 0 0 1 196 97.44 Z m -3.64 -5 H 171.92 c -0.17 -0.19 -0.34 -0.39 -0.53 -0.58 l -2.5 -2.5 h 20.36 Z m -5 -5 H 166.94 l -3.08 -3.08 h 20.36 Z m -5 -5 H 161.91 l -3.09 -3.09 h 20.37 Z m -5 -5 H 156.88 l -3.09 -3.09 h 20.37 Z m -5 -5 H 151.85 l -3.09 -3.09 h 20.37 Z m -5 -5 H 146.82 l -3.09 -3.09 h 20.36 Z m -8.83 -8.84 l 3.8 3.8 H 141.78 l -3.08 -3.08 h 19.65 Z m -1.23 -1.23 H 136.75 l -3.08 -3.09 H 154 Z m -5 -5 H 131.72 l -3.09 -3.09 H 149 Z m -5 -5 H 126.69 L 123.6 44 H 144 Z m -5 -5 H 121.66 L 118.57 39 h 20.36 Z m -5 -5 H 116.63 L 113.54 34 H 133.9 Z m -5 -5 H 111.59 l -2 -2 a 14.37 14.37 0 0 0 -1.26 -1.1 h 20.53 Z M 106.53 6.86 H 94.75 A 10.5 10.5 0 0 1 106.53 6.86 Z m -14 2 h 16.2 l 3.09 3.08 H 89.45 Z m -5 5 h 26.27 l 3.09 3.09 H 84.42 Z m -5 5 h 36.34 L 121.89 22 H 79.39 Z m -5 5 h 46.4 L 126.93 27 h -22.2 a 12.89 12.89 0 0 0 -8.41 0 h -22 Z m -5 5 h 20.3 A 13.05 13.05 0 0 0 91.45 30 l -2 2 H 69.32 Z m -5 5 H 87.51 l -3.09 3.08 H 64.29 Z m -5 5 H 82.48 l -3.09 3.09 H 59.26 Z m -5 5 H 77.45 l -3.09 3.09 H 54.23 Z m -5 5 H 72.41 l -3.08 3.09 H 49.19 Z m -5 5 H 67.38 l -3.09 3.09 H 44.16 Z m -5 5 H 62.35 l -3.09 3.08 H 39.13 Z m -5 5 H 57.32 l -3.09 3.09 H 34.1 Z m -5 5 H 52.29 L 49.2 72.28 H 29.07 Z m -5 5 H 47.25 l -3.08 3.09 H 24 Z m -5 5 H 42.22 l -3.08 3.09 H 19 Z m -5 5 H 37.19 L 34.1 87.37 H 14 Z m -5 5 H 32.16 l -2.51 2.5 c -0.18 0.19 -0.35 0.39 -0.52 0.58 H 8.94 Z m -5 5 H 27.7 a 12.77 12.77 0 0 0 -1.33 3.09 H 5.29 A 10.47 10.47 0 0 1 7.06 94.35 Z M 4.65 101 a 11.24 11.24 0 0 1 0.14 -1.65 H 26 a 13.5 13.5 0 0 0 0 3 H 4.74 A 11.72 11.72 0 0 1 4.65 101 Z m 0.53 3.28 H 26.36 a 12.42 12.42 0 0 0 1.31 3.08 H 6.81 A 10.13 10.13 0 0 1 5.18 104.31 Z m 3.43 5 H 29.07 c 0.19 0.21 0.38 0.43 0.58 0.64 l 2.45 2.44 H 11.7 Z m 5 5 H 34 l 3.09 3.09 H 16.73 Z m 5 5 h 20.4 l 3.08 3.09 H 21.76 Z m 5 5 h 20.4 l 3.09 3.09 H 26.79 Z m 5 5 h 20.4 l 3.09 3.08 H 31.83 Z m 5 5 h 20.4 l 3.09 3.08 H 36.86 Z m 5 5 H 59.2 l 3.09 3.09 H 41.89 Z m 5 5 H 64.24 l 3.08 3.09 H 46.92 Z m 5 5 h 20.4 l 3.08 3.09 H 52 Z m 5 5 H 74.3 l 3.09 3.09 H 57 Z m 5 5 h 20.4 l 3.09 3.08 H 62 Z m 5 5 h 20.4 l 3.09 3.09 H 67.05 Z m 5 5 H 89.4 l 2 2.05 a 11.55 11.55 0 0 0 1.18 1 H 72.08 Z m 25.32 25.16 H 107 A 10.47 10.47 0 0 1 94.31 194.88 Z m 14.76 -1.95 H 92.21 l -3.09 -3.08 h 23 Z m 5 -5 H 87.18 l -3.09 -3.08 h 33.1 Z m 5 -5 h -37 l -3.08 -3.09 h 43.16 Z m 5 -5 H 77.11 L 74 174.75 H 96.15 a 12.89 12.89 0 0 0 8.75 0 h 22.35 Z m 5 -5 H 108.42 a 12.73 12.73 0 0 0 1.18 -1 l 2.05 -2.05 h 20.63 Z m 5 -5 H 113.6 l 3.08 -3.09 h 20.64 Z m 5 -5 H 118.63 l 3.09 -3.08 h 20.63 Z m 5 -5 H 123.66 l 3.09 -3.09 h 20.63 Z m 5 -5 H 128.69 l 3.09 -3.09 h 20.63 Z m 5 -5 H 133.72 l 3.09 -3.09 h 20.63 Z m 5 -5 H 138.76 l 3.08 -3.09 h 20.64 Z m 5 -5 H 143.79 l 3.09 -3.08 h 20.63 Z m 5 -5 H 148.82 l 3.09 -3.08 h 20.63 Z m 5 -5 H 153.85 l 3.09 -3.09 h 20.63 Z m 5 -5 H 158.88 L 162 119.4 H 182.6 Z m 5 -5 H 163.92 l 3.08 -3.09 h 20.64 Z m 5 -5 H 169 l 2.44 -2.44 c 0.21 -0.21 0.39 -0.43 0.58 -0.64 h 20.7 Z m 4.89 -5 H 173.38 a 13.22 13.22 0 0 0 1.31 -3.08 h 21.4 A 10.35 10.35 0 0 1 194.47 107.39 Z m 2.06 -5 H 175.06 a 12.38 12.38 0 0 0 0 -3 h 21.43 A 10.63 10.63 0 0 1 196.53 102.36 Z" stroke-linecap="round" />
</g>
</g>
</g>
</g>
</g>
<g transform="matrix(1.9692780337941629 0 0 1.9692780337941629 290.7601831166075 510.33728390877957)" id="tagline-fe788681-d35c-41fb-b2ad-4aa334383e42-logo-path"  >
<path style="stroke: none; stroke-width: 0; stroke-dasharray: none; stroke-linecap: butt; stroke-dashoffset: 0; stroke-linejoin: miter; stroke-miterlimit: 4; fill: white; fill-rule: nonzero; opacity: 1;"  paint-order="stroke"  transform=" translate(-34.11, 17.225)" d="M 12.73 0 L 3.7 0 L 3.7 -3.18 L 6.37 -3.18 L 6.37 -31.26 L 3.7 -31.26 L 3.7 -34.44 L 12.73 -34.44 L 12.73 -31.26 L 10.07 -31.26 L 10.07 -3.18 L 12.73 -3.18 L 12.73 0 Z M 20.91 -6.63 L 20.91 -6.63 L 20.91 -27.82 Q 20.91 -31.37 23.08 -33.31 Q 25.26 -35.25 29.61 -35.25 Q 33.95 -35.25 36.18 -33.31 Q 38.4 -31.37 38.4 -27.82 L 38.4 -27.82 L 38.4 -22.8 L 34.7 -22.8 L 34.7 -27.82 Q 34.7 -32.06 29.66 -32.06 Q 24.61 -32.06 24.61 -27.82 L 24.61 -27.82 L 24.61 -6.63 Q 24.61 -2.38 29.66 -2.38 Q 34.7 -2.38 34.7 -6.63 L 34.7 -6.63 L 34.7 -9.55 L 38.4 -9.55 L 38.4 -6.63 Q 38.4 -3.08 36.23 -1.14 Q 34.06 0.8 29.71 0.8 Q 25.36 0.8 23.14 -1.14 Q 20.91 -3.08 20.91 -6.63 Z M 46.61 -6.63 L 46.61 -6.63 L 46.61 -11.13 L 50.31 -11.13 L 50.31 -6.42 Q 50.31 -4.5 51.64 -3.44 Q 52.97 -2.38 55.56 -2.38 Q 58.15 -2.38 59.48 -3.44 Q 60.82 -4.5 60.82 -6.33 Q 60.82 -8.15 60.41 -9.24 Q 60.01 -10.33 58.8 -11.54 L 58.8 -11.54 L 49.45 -20.68 Q 47.82 -22.31 47.22 -23.87 Q 46.61 -25.44 46.61 -27.82 L 46.61 -27.82 Q 46.61 -31.37 48.81 -33.31 Q 51.01 -35.25 55.46 -35.25 L 55.46 -35.25 Q 64 -35.25 64 -27.82 L 64 -27.82 L 64 -23.32 L 60.27 -23.32 L 60.27 -28.03 Q 60.27 -29.94 59.03 -31 Q 57.79 -32.06 55.29 -32.06 Q 52.79 -32.06 51.55 -31 Q 50.31 -29.94 50.31 -28.09 Q 50.31 -26.24 50.68 -25.18 Q 51.06 -24.12 52.33 -22.95 L 52.33 -22.95 L 61.82 -13.85 Q 63.35 -12.14 63.93 -10.57 Q 64.52 -9.01 64.52 -6.63 L 64.52 -6.63 Q 64.52 0.8 55.56 0.8 Q 46.61 0.8 46.61 -6.63 Z" stroke-linecap="round" />
</g>
</svg>